<?xml version="1.0" encoding="utf-8" ?>
<svg xmlns="http://www.w3.org/2000/svg" xmlns:xlink="http://www.w3.org/1999/xlink" width="1024" height="1024">
	<path fill="#867CF7" d="M923.857 914.559C929.904 914.427 945.824 912.843 950.051 916.719C950.633 917.847 950.891 918.983 950.421 920.218C949.881 921.633 949.121 922.061 947.876 922.731C942.313 922.826 924.697 924.271 921.089 920.823C920.663 920.417 920.186 919.696 920.241 919.072C920.42 917.047 922.323 915.616 923.857 914.559Z"/>
	<path fill="#867CF7" d="M234.237 888.875C240.094 888.83 246 888.586 251.854 888.708C251.734 892.626 251.415 896.671 252.067 900.549C259.191 900.278 267.211 902.596 272.48 907.486C275.215 910.025 277.014 912.919 278.468 916.321C292.111 915.947 305.807 916.279 319.454 916.401C325.471 916.455 332.16 917.071 338.115 916.249C348.228 918.397 363.419 917.045 374.073 916.997L433.918 917.001L600.31 917.144C626.168 917.157 652.119 917.854 677.963 917.342C681.859 917.265 685.249 916.914 688.996 915.826C697.516 912.553 703 908.597 709.369 902.068C713.128 908.465 716.322 912.754 723.378 915.783C728.241 916.677 733.917 916.123 738.894 916.113L767.597 916.073L815.771 916.006C824.181 915.992 833.781 916.894 842.001 915.32C847.43 915.575 853.01 915.248 858.45 915.186C872.848 915.022 887.342 914.553 901.732 914.692C903.469 914.709 905.125 915.023 906.257 916.48C906.977 917.408 907.342 918.453 907.031 919.614C906.608 921.194 904.977 922.25 903.539 922.78C901.422 923.561 820.253 922.575 810.862 922.593L258.183 922.616L135.757 922.941C117.891 922.975 99.5905 923.845 81.7641 922.86C80.4465 922.787 78.9297 922.563 77.8511 921.73C76.7322 920.867 76.6562 920.193 76.4321 918.914C76.7738 917.707 77.0911 916.904 78.0872 916.078C79.3323 915.046 81.0584 914.511 82.6491 914.361C85.576 914.084 88.7168 914.53 91.6766 914.546L113.693 914.585L150.562 914.613C157.532 914.624 164.934 914.195 171.841 915.11C171.99 915.129 172.139 915.153 172.289 915.174C173.503 910.183 173.741 904.925 175.627 900.112L176.439 900.332C176.602 896.56 177.121 892.756 177.493 888.997L180.686 889.037C186.4 889.045 192.251 888.789 197.94 889.315C197.121 893.094 196.924 896.497 197.027 900.365C206.042 900.998 215.549 900.845 221.961 908.342C224.132 910.88 225.261 913.501 226.342 916.596C226.822 916.477 227.23 916.188 227.659 915.946C228.645 912.332 229.392 903.117 231.798 900.738C233.628 897.824 233.751 892.348 234.237 888.875Z"/>
	<path fill="#FEFEFE" d="M709.369 902.068C713.128 908.465 716.322 912.754 723.378 915.783C717.366 916.977 695.707 916.44 688.996 915.826C697.516 912.553 703 908.597 709.369 902.068Z"/>
	<path fill="#163480" d="M234.237 888.875C240.094 888.83 246 888.586 251.854 888.708C251.734 892.626 251.415 896.671 252.067 900.549C259.191 900.278 267.211 902.596 272.48 907.486C275.215 910.025 277.014 912.919 278.468 916.321C272.788 916.776 230.327 917.149 227.659 915.946C228.645 912.332 229.392 903.117 231.798 900.738C233.628 897.824 233.751 892.348 234.237 888.875Z"/>
	<path fill="#F0A346" d="M234.237 888.875C240.094 888.83 246 888.586 251.854 888.708C251.734 892.626 251.415 896.671 252.067 900.549C246.533 902.521 237.473 901.95 231.798 900.738C233.628 897.824 233.751 892.348 234.237 888.875Z"/>
	<path fill="#163480" d="M180.686 889.037C186.4 889.045 192.251 888.789 197.94 889.315C197.121 893.094 196.924 896.497 197.027 900.365C206.042 900.998 215.549 900.845 221.961 908.342C224.132 910.88 225.261 913.501 226.342 916.596C221.88 916.252 217.194 916.537 212.702 916.543L186.794 916.577C182.269 916.584 177.263 917.061 172.831 916.203L172.289 915.174C173.503 910.183 173.741 904.925 175.627 900.112L176.439 900.332C176.602 896.56 177.121 892.756 177.493 888.997L180.686 889.037Z"/>
	<path fill="#F0A346" d="M180.686 889.037C186.4 889.045 192.251 888.789 197.94 889.315C197.121 893.094 196.924 896.497 197.027 900.365C189.884 901.914 183.606 901.554 176.439 900.332C176.602 896.56 177.121 892.756 177.493 888.997L180.686 889.037Z"/>
	<path fill="#42BE83" d="M333.106 186.99C332.184 184.211 331.336 181.445 330.722 178.579C327.248 162.355 329.581 145.024 338.724 131.037C347.247 117.996 360.041 108.148 375.429 104.948C387.882 102.358 405.733 103.455 416.626 110.645Q418.046 111.366 419.429 112.154Q420.812 112.943 422.155 113.798Q423.498 114.653 424.798 115.572Q426.098 116.491 427.352 117.472Q428.605 118.453 429.81 119.493Q431.015 120.534 432.168 121.632Q433.321 122.73 434.419 123.883Q435.517 125.035 436.558 126.24Q437.599 127.444 438.581 128.698Q439.562 129.952 440.481 131.251Q441.401 132.551 442.256 133.894Q443.111 135.237 443.9 136.62Q444.689 138.002 445.41 139.422Q446.131 140.841 446.782 142.294Q447.434 143.747 448.014 145.229Q448.594 146.712 449.101 148.221C449.953 150.76 450.683 153.355 451.376 155.941C453.648 174.663 451.743 191.253 439.834 206.604Q438.891 207.823 437.89 208.994Q436.888 210.165 435.831 211.286Q434.773 212.406 433.662 213.474Q432.551 214.542 431.389 215.553Q430.227 216.565 429.017 217.519Q427.807 218.473 426.552 219.367Q425.297 220.26 423.999 221.091Q422.702 221.923 421.365 222.689Q420.028 223.456 418.656 224.156Q417.283 224.856 415.878 225.489Q414.473 226.121 413.039 226.684Q411.604 227.246 410.144 227.738Q408.684 228.23 407.201 228.65Q405.719 229.07 404.217 229.417Q402.716 229.764 401.2 230.037Q399.683 230.31 398.155 230.508C389.39 231.58 380.955 230.36 372.573 227.727C360.072 222.934 349.733 215.499 343.098 203.655C340.65 201.57 335.754 192.088 333.957 188.88C331.813 188.967 329.832 189.245 327.844 188.294L327.855 187.65C329.597 186.764 331.192 186.94 333.106 186.99Z"/>
	<path fill="#FEFEFE" d="M407.391 139.481C413.171 143.244 418.136 149.347 422.915 154.291Q418.204 159.162 413.639 164.169C412.016 163.126 410.433 162.008 408.836 160.924C405.086 165.091 400.921 169.003 397.024 173.044C392.294 177.948 387.556 183.586 382.101 187.683C378.252 184.553 374.874 180.77 371.42 177.215C366.628 172.467 360.418 167.394 356.707 161.801C359.565 157.8 363.202 154.43 366.733 151.036C371.919 155.411 376.529 160.6 381.59 165.163C391.082 157.604 397.907 147.048 407.391 139.481Z"/>
	<path fill="#1B9662" d="M416.626 110.645Q418.046 111.366 419.429 112.154Q420.812 112.943 422.155 113.798Q423.498 114.653 424.798 115.572Q426.098 116.491 427.352 117.472Q428.605 118.453 429.81 119.493Q431.015 120.534 432.168 121.632Q433.321 122.73 434.419 123.883Q435.517 125.035 436.558 126.24Q437.599 127.444 438.581 128.698Q439.562 129.952 440.481 131.251Q441.401 132.551 442.256 133.894Q443.111 135.237 443.9 136.62Q444.689 138.002 445.41 139.422Q446.131 140.841 446.782 142.294Q447.434 143.747 448.014 145.229Q448.594 146.712 449.101 148.221C449.953 150.76 450.683 153.355 451.376 155.941C453.648 174.663 451.743 191.253 439.834 206.604Q438.891 207.823 437.89 208.994Q436.888 210.165 435.831 211.286Q434.773 212.406 433.662 213.474Q432.551 214.542 431.389 215.553Q430.227 216.565 429.017 217.519Q427.807 218.473 426.552 219.367Q425.297 220.26 423.999 221.091Q422.702 221.923 421.365 222.689Q420.028 223.456 418.656 224.156Q417.283 224.856 415.878 225.489Q414.473 226.121 413.039 226.684Q411.604 227.246 410.144 227.738Q408.684 228.23 407.201 228.65Q405.719 229.07 404.217 229.417Q402.716 229.764 401.2 230.037Q399.683 230.31 398.155 230.508C389.39 231.58 380.955 230.36 372.573 227.727C360.072 222.934 349.733 215.499 343.098 203.655C345.03 204.633 346.847 206.15 348.652 207.364C354.035 210.983 359.428 214.551 365.554 216.806C378.969 221.744 394.745 220.034 407.523 214.04Q408.83 213.442 410.105 212.779Q411.38 212.116 412.621 211.39Q413.861 210.664 415.064 209.877Q416.266 209.091 417.428 208.245Q418.59 207.399 419.708 206.496Q420.827 205.593 421.898 204.636Q422.97 203.678 423.993 202.668Q425.015 201.658 425.986 200.598Q426.957 199.539 427.874 198.432Q428.791 197.325 429.651 196.174Q430.511 195.023 431.313 193.83Q432.115 192.637 432.856 191.406Q433.597 190.174 434.276 188.907Q434.955 187.641 435.569 186.342Q436.184 185.042 436.733 183.714Q437.282 182.386 437.764 181.032Q438.086 180.114 438.378 179.186Q438.67 178.258 438.932 177.322Q439.194 176.385 439.426 175.44Q439.657 174.495 439.858 173.544Q440.06 172.592 440.23 171.634Q440.4 170.676 440.54 169.714Q440.679 168.751 440.788 167.784Q440.896 166.818 440.973 165.848Q441.051 164.878 441.096 163.907Q441.142 162.935 441.157 161.962Q441.172 160.99 441.155 160.017Q441.138 159.045 441.09 158.073Q441.043 157.102 440.963 156.132Q440.884 155.163 440.774 154.196Q440.663 153.23 440.522 152.267Q440.38 151.305 440.208 150.348Q440.035 149.39 439.832 148.439Q439.629 147.488 439.396 146.543Q439.162 145.599 438.898 144.663Q438.634 143.727 438.34 142.799Q438.046 141.872 437.723 140.955Q437.399 140.038 437.046 139.131Q436.693 138.225 436.311 137.33Q435.929 136.436 435.518 135.554Q435.108 134.672 434.669 133.804Q434.23 132.936 433.763 132.082Q433.297 131.229 432.803 130.39Q432.31 129.552 431.789 128.731Q431.268 127.909 430.722 127.104Q430.175 126.3 429.603 125.513Q429.031 124.727 428.433 123.959Q427.836 123.191 427.214 122.443C424.93 119.719 418.029 114.072 416.902 111.375C416.802 111.135 416.718 110.888 416.626 110.645Z"/>
	<defs>
		<linearGradient id="gradient_0" gradientUnits="userSpaceOnUse" x1="125.55929" y1="666.578" x2="139.53468" y2="899.16107">
			<stop offset="0" stop-color="#CDC6F7"/>
			<stop offset="1" stop-color="#EAE7FA"/>
		</linearGradient>
	</defs>
	<path fill="url(#gradient_0)" d="M143.929 664.312C152.079 670.595 158.526 672.639 168.549 674.207L168.887 713.514L171.574 888.766L177.493 888.997C177.121 892.756 176.602 896.56 176.439 900.332L175.627 900.112C175.577 899.666 175.639 899.194 175.478 898.776C175.087 897.763 166.196 895.205 164.637 894.606C148.166 888.275 133.432 874.727 122.255 861.386Q121.18 860.106 120.136 858.8Q119.093 857.494 118.082 856.163Q117.071 854.832 116.094 853.476Q115.116 852.12 114.172 850.741Q113.228 849.361 112.319 847.959Q111.409 846.556 110.535 845.132Q109.66 843.707 108.821 842.262Q107.982 840.816 107.178 839.35Q106.375 837.884 105.608 836.399Q104.841 834.914 104.111 833.41Q103.381 831.906 102.689 830.385Q101.996 828.864 101.341 827.326Q100.686 825.788 100.07 824.234Q99.4528 822.681 98.8746 821.112Q98.2964 819.544 97.757 817.962Q97.2177 816.38 96.7176 814.785Q96.2175 813.19 95.7569 811.583Q95.2963 809.976 94.8755 808.358Q94.4547 806.741 94.074 805.113Q93.6933 803.485 93.3528 801.849Q93.0123 800.212 92.7124 798.568Q92.4124 796.924 92.1531 795.272Q91.8938 793.621 91.6754 791.964Q91.4569 790.306 91.2794 788.644Q91.1019 786.982 90.9655 785.316Q90.8291 783.65 90.7339 781.981Q90.6386 780.313 90.5846 778.642Q90.5305 776.971 90.5177 775.3Q90.5049 773.628 90.5334 771.957Q90.5619 770.286 90.6316 768.616Q90.7013 766.945 90.8122 765.278Q90.9231 763.61 91.0751 761.945C94.8002 720.371 112.394 690.655 143.929 664.312Z"/>
	<path fill="#867CF7" d="M168.887 713.514L190.824 713.508L211.97 713.54Q237.68 713.405 263.387 713.843C261.555 754.316 260.74 794.896 259.645 835.399L258.69 871.954C258.53 877.393 258.776 883.091 258.19 888.482C256.082 888.571 253.963 888.713 251.854 888.708C246 888.586 240.094 888.83 234.237 888.875C233.751 892.348 233.628 897.824 231.798 900.738C229.392 903.117 228.645 912.332 227.659 915.946C227.23 916.188 226.822 916.477 226.342 916.596C225.261 913.501 224.132 910.88 221.961 908.342C215.549 900.845 206.042 900.998 197.027 900.365C196.924 896.497 197.121 893.094 197.94 889.315C192.251 888.789 186.4 889.045 180.686 889.037L177.493 888.997L171.574 888.766L168.887 713.514Z"/>
	<path fill="#FEFEFE" d="M221.91 771.382C223.721 798.084 224.263 824.848 225.214 851.589C225.606 862.606 225.615 873.701 226.54 884.69C226.656 886.065 226.761 887.105 227.448 888.335L227.872 888.584C230.033 888.847 232.06 888.971 234.237 888.875C233.751 892.348 233.628 897.824 231.798 900.738C229.392 903.117 228.645 912.332 227.659 915.946C227.23 916.188 226.822 916.477 226.342 916.596C225.261 913.501 224.132 910.88 221.961 908.342C215.549 900.845 206.042 900.998 197.027 900.365C196.924 896.497 197.121 893.094 197.94 889.315C198.901 889.318 199.867 889.244 200.827 889.197C201.136 888.935 201.521 888.742 201.754 888.411C202.838 886.868 215.113 810.518 216.593 801.221C217.862 793.255 219.249 778.514 221.91 771.382Z"/>
	<path fill="#4C3ADF" d="M228.733 732.58Q231.227 731.933 233.628 730.996Q236.028 730.058 238.301 728.844C240.406 727.733 244.53 723.927 246.479 723.793L245.202 725.578C242.719 741.697 241.928 850.135 237.95 854.835L237.537 854.943C237.324 866.119 236.969 877.286 236.994 888.466C233.99 888.468 230.857 888.308 227.872 888.584L227.448 888.335C226.761 887.105 226.656 886.065 226.54 884.69C225.615 873.701 225.606 862.606 225.214 851.589C224.263 824.848 223.721 798.084 221.91 771.382C224.023 758.437 226.386 745.487 228.733 732.58Z"/>
	<path fill="#6555F3" d="M240.113 728.63L245.202 725.578C242.719 741.697 241.928 850.135 237.95 854.835L237.537 854.943C236.621 841.783 237.211 828.508 237.45 815.327C237.972 786.404 239.492 757.543 240.113 728.63Z"/>
	<path fill="#6555F3" d="M168.887 713.514L190.824 713.508L211.97 713.54L213.924 714.097C209.44 715.438 194.641 712.864 192.644 716.487C192.093 717.486 191.988 718.748 191.906 719.865L182.339 860.067C181.708 869.687 181.532 879.451 180.686 889.037L177.493 888.997L171.574 888.766L168.887 713.514Z"/>
	<defs>
		<linearGradient id="gradient_1" gradientUnits="userSpaceOnUse" x1="514.06299" y1="102.87697" x2="509.61096" y2="892.03174">
			<stop offset="0" stop-color="#B9BCF1"/>
			<stop offset="1" stop-color="#DFDDFC"/>
		</linearGradient>
	</defs>
	<path fill="url(#gradient_1)" d="M451.376 155.941C458.863 149.74 467.058 144.758 475.434 139.861Q479.103 137.72 482.838 135.695Q486.573 133.669 490.369 131.761Q494.165 129.854 498.018 128.065Q501.872 126.277 505.78 124.61Q509.688 122.943 513.646 121.399Q517.604 119.855 521.608 118.435Q525.612 117.016 529.659 115.722Q533.705 114.428 537.791 113.261Q541.876 112.094 545.995 111.056Q550.115 110.017 554.265 109.107Q558.415 108.198 562.591 107.418Q566.767 106.639 570.966 105.991Q575.165 105.342 579.382 104.825Q583.599 104.308 587.829 103.923Q592.06 103.538 596.301 103.285Q600.542 103.032 604.789 102.912Q618.224 102.473 631.641 103.301Q645.058 104.129 658.338 106.216C694.998 111.92 746.002 128.167 773.428 154.147C778.872 151.661 784.126 149.419 789.983 148.063Q792.629 137.229 794.054 126.167C801.125 126.156 808.202 126.209 815.269 125.938Q817.325 136.827 819.264 147.737C826.199 150.104 832.991 152.319 838.896 156.825Q846.608 151.348 854.123 145.602C859.079 151.193 864.36 156.46 869.616 161.765C866.61 166.67 863.381 171.401 860.127 176.143C863.892 181.85 866.608 187.811 868.805 194.292C869.041 194.988 868.911 194.713 869.362 195.323C875.823 195.732 882.675 196.13 889.009 197.486Q889.197 208.575 889.538 219.66C883.045 220.552 876.475 221.701 869.948 222.24C868.667 226.962 867.277 231.486 865.317 235.984C864.314 238.286 861.492 242.463 861.461 244.747L861.889 244.95C870.186 247.464 887.736 278.454 892.32 287.026Q894.186 290.553 895.945 294.134Q897.704 297.716 899.356 301.348Q901.007 304.98 902.55 308.66Q904.092 312.34 905.524 316.064Q906.955 319.788 908.275 323.554Q909.595 327.319 910.802 331.123Q912.008 334.926 913.101 338.763Q914.193 342.601 915.171 346.469Q916.148 350.338 917.01 354.234Q917.871 358.13 918.616 362.05Q919.36 365.97 919.988 369.91Q920.615 373.851 921.124 377.808Q921.633 381.766 922.024 385.736Q922.415 389.707 922.687 393.688Q922.958 397.669 923.111 401.656Q923.264 405.643 923.298 409.633C923.33 421.849 922.15 434.109 920.756 446.232C920.011 452.715 921.537 460.522 919.517 466.641C918.76 468.934 917.373 470.969 916.56 473.262C913.967 480.569 912.296 488.209 909.644 495.557C899.072 524.844 883.795 551.915 863.097 575.229C857.197 581.876 850.598 587.72 844.386 594.041C857.75 600.54 870.841 607.984 882.644 617.058C908.466 636.911 928.93 665.628 939.58 696.365C953.781 737.35 952.447 783.582 933.361 822.817C920.896 848.442 902.042 871.848 877.226 886.356C872.84 888.92 868.39 891.616 863.569 893.282C861.834 893.882 859.73 894.605 857.928 893.966C857.206 897.37 856.191 900.344 854.488 903.405C850.954 908.354 846.782 911.637 842.001 915.32C833.781 916.894 824.181 915.992 815.771 916.006L767.597 916.073L738.894 916.113C733.917 916.123 728.241 916.677 723.378 915.783C716.322 912.754 713.128 908.465 709.369 902.068C711.563 899.37 714.272 896.505 715.91 893.446C722.6 880.95 720.422 857.925 720.411 843.508C719.821 837.279 720.153 830.701 720.125 824.437Q720.003 806.904 720.099 789.372L719.844 785.791C729.939 785.475 740.067 785.596 750.168 785.563C751.07 781.693 752.222 777.896 753.065 774C753.762 770.776 753.915 767.444 755.019 764.324C755.449 762.264 754.922 759.784 754.57 757.703C751.771 741.172 735.618 730.818 732.94 714.373C731.265 704.088 732.501 680.932 737.161 671.566C740.558 664.741 752.25 655.431 752.433 648.084C752.439 647.86 752.425 647.635 752.421 647.41C743.164 635.461 732.34 627.69 718.916 620.992L718.722 543.852Q718.968 514.693 718.84 485.534C718.362 475.901 718.691 466.147 718.678 456.5L718.589 403.371L718.598 347.272C718.56 335.085 718.169 322.778 718.639 310.605C718.569 297.962 716.268 287.334 706.961 278.113Q705.747 276.911 704.443 275.807Q703.138 274.704 701.751 273.706Q700.364 272.708 698.903 271.822Q697.442 270.936 695.916 270.168Q694.39 269.399 692.809 268.753Q691.227 268.106 689.6 267.586Q687.972 267.065 686.309 266.674Q684.646 266.283 682.957 266.023C671.875 264.383 658.186 265.465 646.781 265.485L578.627 265.515L428.245 265.54C403.208 265.534 378.128 265.167 353.095 265.478C340.468 265.634 327.951 270.377 319.041 279.482C312.686 285.975 307.936 294.652 306.515 303.668C304.778 314.689 305.659 326.623 305.685 337.772L305.856 396.674L305.481 601.722C294.173 598.492 280.97 604.802 269.563 601.693L268.841 601.516C265.783 601.665 263.637 601.982 261.48 604.302C258.385 607.632 240.346 652.458 238.91 658.343Q237.398 662.447 235.802 666.52C233.992 666.922 232.565 668.115 231.078 669.165L229.185 668.92C228.664 669.663 228.47 670.046 228.188 670.873C224.631 672.524 210.332 671.836 204.847 672.946C193.107 674.614 180.374 675.189 168.549 674.207C158.526 672.639 152.079 670.595 143.929 664.312C142.35 662.415 140.902 660.561 139.898 658.285C134.667 646.416 142.5 632.822 146.78 621.753L145.401 620.848C145.236 620.774 145.064 620.715 144.907 620.627C140.648 618.244 136.865 613.302 133.626 609.662Q129.963 605.491 126.501 601.151Q123.039 596.812 119.785 592.314Q116.532 587.815 113.495 583.169Q110.458 578.522 107.643 573.737Q104.829 568.951 102.244 564.039Q99.659 559.126 97.3089 554.096Q94.9587 549.067 92.8488 543.932Q90.7388 538.798 88.8738 533.569C66.9713 472.563 69.068 408.438 96.8732 349.707C122.412 295.764 167.579 253.839 225.04 236.545C233.591 233.971 242.339 231.611 251.182 230.289C273.778 226.913 301.328 228.41 324.547 228.54C330.536 228.573 368.298 229.495 371.903 228.025C372.129 227.932 372.35 227.826 372.573 227.727C380.955 230.36 389.39 231.58 398.155 230.508Q399.683 230.31 401.2 230.037Q402.716 229.764 404.217 229.417Q405.719 229.07 407.201 228.65Q408.684 228.23 410.144 227.738Q411.604 227.246 413.039 226.684Q414.473 226.121 415.878 225.489Q417.283 224.856 418.656 224.156Q420.028 223.456 421.365 222.689Q422.702 221.923 423.999 221.091Q425.297 220.26 426.552 219.367Q427.807 218.473 429.017 217.519Q430.227 216.565 431.389 215.553Q432.551 214.542 433.662 213.474Q434.773 212.406 435.831 211.286Q436.888 210.165 437.89 208.994Q438.891 207.823 439.834 206.604C451.743 191.253 453.648 174.663 451.376 155.941Z"/>
	<path fill="#4C3ADF" d="M616.427 189.618C617.452 189.871 617.455 189.767 618.266 190.57C619.002 193.712 618.62 196.725 617.812 199.815L616.87 199.358C615.594 197.229 616.29 192.134 616.427 189.618Z"/>
	<path fill="#4C3ADF" d="M616.072 216.334C616.367 213.208 616.182 209.838 616.958 206.82L617.529 206.866C618.675 209.417 619.163 212.519 618.378 215.268C618.058 216.387 617.374 217.08 616.563 217.865C612.519 218.6 607.466 218.599 603.471 217.507L604.045 217.244L604.205 217.791L603.459 217.517C606.671 215.826 612.433 216.335 616.072 216.334Z"/>
	<path fill="#4C3ADF" d="M288.419 264.338L289.014 263.78L289.987 264.155L290.288 265.043C286.199 269.526 281.316 273.484 276.877 277.648C273.59 274.538 264.433 267.495 264.152 263.348C268.154 264.718 273.086 271.497 276.001 274.718C275.982 272.039 275.656 269.465 276.515 266.878L277.069 267.013C277.839 269.397 277.772 271.792 277.834 274.271L288.419 264.338Z"/>
	<path fill="#1B9662" d="M277.251 587.701Q282.141 594.764 287.454 601.514C281.53 601.597 275.467 601.378 269.563 601.693L268.841 601.516C269.632 597.025 274.608 591.459 277.251 587.701Z"/>
	<path fill="#6C1B8C" d="M789.546 273.644C799.287 275.78 808.532 276.05 818.407 274.659Q816.032 283.154 813.999 291.738C807.482 291.446 800.927 291.545 794.404 291.525C792.888 285.527 791.335 279.567 789.546 273.644Z"/>
	<path fill="#E63E5A" d="M835.607 267.7C836.799 265.081 843.627 262.223 846.138 260.262Q851.474 256.12 855.982 251.091C857.837 249.008 859.245 246.459 861.461 244.747L861.889 244.95C864.32 250.637 867.315 256.372 870.78 261.503L856.169 274.059L840.497 265.051C838.885 265.941 837.277 266.931 835.607 267.7Z"/>
	<path fill="#6C1B8C" d="M722.949 199.752Q732.924 198.519 742.691 196.142C740.887 205.87 740.751 214.228 742.57 223.95C736.182 222.176 729.584 221.07 723.017 220.201L722.949 199.752Z"/>
	<path fill="#4C3ADF" d="M615.111 143.583C617.661 143.402 620.032 143.518 622.412 144.554Q623.06 144.833 623.675 145.178Q624.29 145.523 624.867 145.929Q625.443 146.336 625.975 146.8Q626.507 147.263 626.987 147.779Q627.468 148.296 627.893 148.858Q628.318 149.421 628.683 150.025Q629.048 150.629 629.348 151.267Q629.649 151.905 629.882 152.571Q630.097 153.179 630.25 153.806Q630.404 154.432 630.494 155.071Q630.585 155.71 630.611 156.354Q630.637 156.999 630.599 157.643Q630.562 158.287 630.46 158.924Q630.358 159.56 630.193 160.184Q630.029 160.808 629.803 161.412Q629.577 162.016 629.292 162.595C627.296 166.61 623.957 168.607 619.819 169.91C617.262 170.078 614.611 170.033 612.202 169.071C608.971 167.782 606.435 165.386 605.15 162.136Q604.912 161.525 604.734 160.893Q604.557 160.262 604.442 159.616Q604.327 158.97 604.276 158.317Q604.225 157.663 604.238 157.007Q604.251 156.351 604.328 155.7Q604.405 155.048 604.546 154.408Q604.686 153.767 604.888 153.143Q605.091 152.519 605.353 151.918C607.332 147.448 610.788 145.344 615.111 143.583Z"/>
	<path fill="#C2CAF7" d="M617.169 146.162C618.433 146.283 619.805 146.515 620.99 146.988C623.768 148.097 626.091 150.439 627.097 153.258Q627.287 153.789 627.42 154.337Q627.553 154.885 627.627 155.444Q627.702 156.003 627.716 156.567Q627.731 157.13 627.686 157.693Q627.641 158.255 627.538 158.809Q627.434 159.363 627.272 159.904Q627.11 160.444 626.892 160.964Q626.674 161.484 626.402 161.978C624.545 165.35 621.858 166.644 618.277 167.613C616.285 167.478 614.396 167.205 612.634 166.195Q612.15 165.915 611.697 165.586Q611.244 165.257 610.829 164.882Q610.413 164.508 610.039 164.092Q609.665 163.676 609.336 163.223Q609.007 162.77 608.728 162.286Q608.448 161.801 608.221 161.29Q607.993 160.779 607.821 160.247Q607.648 159.714 607.532 159.167Q607.41 158.614 607.347 158.051Q607.284 157.489 607.281 156.922Q607.277 156.356 607.333 155.793Q607.39 155.229 607.505 154.675Q607.62 154.121 607.793 153.582Q607.966 153.042 608.195 152.524Q608.424 152.007 608.706 151.516Q608.988 151.025 609.32 150.566C611.326 147.838 613.928 146.729 617.169 146.162Z"/>
	<path fill="#0E1B74" d="M200.117 484.955C201.5 482.151 203.48 479.603 206.04 477.774C216.297 470.446 230.328 476.873 241.765 476.039C246.129 475.72 249.697 472.362 254.224 473.073C253.405 475.631 252.618 477.261 250.159 478.547C239.65 484.044 223.806 476.757 212.827 480.025C208.139 481.421 205.304 484.995 201.12 487.002C197.004 489.438 194.8 492.328 193.505 496.97C191.993 502.388 192.309 508.835 195.183 513.753C196.331 515.716 197.286 517.074 199.376 518.043C199.899 524.2 203.86 530.917 205.754 536.909Q204.178 535.857 202.635 534.757C194.414 528.861 189.265 518.249 187.743 508.416C186.832 502.537 186.822 494.999 190.58 490.092C193.038 486.884 196.172 485.374 200.117 484.955Z"/>
	<path fill="#867CF7" d="M140.474 430.576C143.869 430.39 146.733 430.385 149.977 431.658Q150.391 431.823 150.796 432.008Q151.2 432.193 151.595 432.399Q151.99 432.605 152.374 432.831Q152.757 433.057 153.129 433.302Q153.501 433.547 153.86 433.81Q154.218 434.074 154.563 434.356Q154.908 434.637 155.238 434.936Q155.568 435.235 155.883 435.551Q156.197 435.866 156.495 436.197Q156.793 436.528 157.073 436.873Q157.354 437.219 157.616 437.579Q157.879 437.938 158.123 438.311Q158.367 438.683 158.591 439.068Q158.816 439.452 159.021 439.848Q159.225 440.243 159.409 440.648Q159.594 441.054 159.757 441.468Q159.931 441.893 160.082 442.326Q160.234 442.759 160.364 443.199Q160.494 443.639 160.601 444.086Q160.708 444.532 160.792 444.983Q160.877 445.434 160.938 445.889Q161 446.344 161.038 446.801Q161.076 447.258 161.091 447.717Q161.106 448.176 161.098 448.635Q161.089 449.093 161.058 449.551Q161.026 450.009 160.972 450.465Q160.917 450.92 160.839 451.373Q160.761 451.825 160.661 452.273Q160.56 452.72 160.437 453.163Q160.314 453.605 160.168 454.04Q160.023 454.475 159.855 454.902Q159.688 455.33 159.499 455.748C156.894 461.409 152.287 464.251 146.627 466.195C142.387 466.764 138.464 466.427 134.658 464.313Q133.872 463.867 133.135 463.344Q132.398 462.821 131.717 462.227Q131.036 461.633 130.418 460.973Q129.8 460.314 129.252 459.596Q128.703 458.878 128.229 458.108Q127.756 457.339 127.362 456.525Q126.968 455.712 126.657 454.863Q126.347 454.015 126.123 453.139C124.885 448.442 125.373 443.265 127.877 439.056C130.739 434.246 135.222 431.906 140.474 430.576Z"/>
	<path fill="#C2CAF7" d="M140.716 439.051C142.532 438.974 144.424 438.821 146.193 439.323C148.709 440.036 151.038 441.82 152.282 444.132Q152.51 444.557 152.694 445.003Q152.877 445.449 153.015 445.911Q153.153 446.374 153.244 446.847Q153.335 447.321 153.378 447.802Q153.42 448.282 153.414 448.765Q153.408 449.247 153.354 449.726Q153.299 450.206 153.197 450.677Q153.094 451.148 152.945 451.607C151.831 455.081 149.659 456.673 146.569 458.35C144.428 458.535 142.251 458.629 140.192 457.896Q139.671 457.705 139.173 457.462Q138.675 457.219 138.204 456.926Q137.733 456.634 137.294 456.294Q136.856 455.955 136.454 455.573Q136.053 455.191 135.692 454.769Q135.332 454.348 135.016 453.892Q134.701 453.436 134.434 452.95Q134.166 452.465 133.95 451.954C132.956 449.582 132.859 446.717 133.982 444.37C135.382 441.443 137.724 440.006 140.716 439.051Z"/>
	<path fill="#163480" d="M254.224 473.073C258.618 476.571 260.855 480.699 261.45 486.323C261.938 490.943 261.27 496.028 258.189 499.695C256.63 501.551 254.561 502.391 252.389 503.344C252.349 505.611 252.698 508.714 252.131 510.861C252.314 508.438 252.16 505.938 252.135 503.505C247.735 503.648 243.393 503.919 239.093 502.797L238.517 502.702C233.829 501.876 224.347 497.601 220.103 499.881C218.64 500.667 218.007 502.163 217.723 503.713C216.611 509.779 217.629 513.195 212.854 517.906L208.91 512.71C206.407 512.43 204.141 512.174 202.078 513.89C200.782 514.966 199.998 516.514 199.376 518.043C197.286 517.074 196.331 515.716 195.183 513.753C192.309 508.835 191.993 502.388 193.505 496.97C194.8 492.328 197.004 489.438 201.12 487.002C205.304 484.995 208.139 481.421 212.827 480.025C223.806 476.757 239.65 484.044 250.159 478.547C252.618 477.261 253.405 475.631 254.224 473.073Z"/>
	<path fill="#0E1B74" d="M215.307 505.806Q215.331 504.275 215.436 502.748C215.579 500.646 215.446 497.918 217.233 496.552C221.404 493.364 232.161 495.645 236.972 496.335L237.079 496.923L237.559 496.784C233.488 496.754 220.865 494.085 218.139 496.551C216.493 498.041 216.185 500.5 216.186 502.584C217.043 501.488 218.02 500.007 219.222 499.274C223.284 496.801 235.011 500.924 239.697 502.213L239.093 502.797L238.517 502.702C233.829 501.876 224.347 497.601 220.103 499.881C218.64 500.667 218.007 502.163 217.723 503.713C216.611 509.779 217.629 513.195 212.854 517.906L208.91 512.71C210.179 510.302 213.425 507.897 215.307 505.806Z"/>
	<path fill="#146663" d="M170.379 569.078C172.711 569.815 174.999 570.482 177.173 571.626C180.441 573.863 182.508 576.752 184.692 579.967C187.393 593.211 185.779 601.002 182.515 613.946C180.054 618.584 178.761 624.846 175.191 628.727C170.269 627.63 165.199 626.936 160.227 626.076C155.629 624.963 151.227 623.345 146.78 621.753L145.401 620.848C146.436 610.287 148.615 598.425 152.64 588.604C156.236 579.829 161.408 572.775 170.379 569.078Z"/>
	<path fill="#1B9662" d="M177.173 571.626C180.441 573.863 182.508 576.752 184.692 579.967C187.393 593.211 185.779 601.002 182.515 613.946C180.054 618.584 178.761 624.846 175.191 628.727C170.269 627.63 165.199 626.936 160.227 626.076C160.821 620.501 163.234 614.58 165.229 609.356C169.771 597.458 175.92 584.385 177.173 571.626Z"/>
	<defs>
		<linearGradient id="gradient_2" gradientUnits="userSpaceOnUse" x1="202.82175" y1="511.67502" x2="252.07648" y2="533.15045">
			<stop offset="0" stop-color="#E1A07C"/>
			<stop offset="1" stop-color="#ECC0A8"/>
		</linearGradient>
	</defs>
	<path fill="url(#gradient_2)" d="M212.854 517.906C217.629 513.195 216.611 509.779 217.723 503.713C218.007 502.163 218.64 500.667 220.103 499.881C224.347 497.601 233.829 501.876 238.517 502.702L239.093 502.797C243.393 503.919 247.735 503.648 252.135 503.505C252.16 505.938 252.314 508.438 252.131 510.861C252.055 511.189 251.973 511.516 251.902 511.846C249.501 522.991 255.492 541.135 244.357 548.908C240.877 551.337 236.812 551.928 232.7 552.34L234.02 554.502C232.514 560.757 229.672 565.816 226.824 571.532C220.935 568.077 214.746 561.11 211.389 555.191C211.787 552.061 211.532 548.63 211.599 545.457L211.363 542.646C210.102 540.176 207.795 538.721 205.754 536.909C203.86 530.917 199.899 524.2 199.376 518.043C199.998 516.514 200.782 514.966 202.078 513.89C204.141 512.174 206.407 512.43 208.91 512.71L212.854 517.906Z"/>
	<path fill="#0E1B74" d="M232.574 519.153C232.732 519.248 232.9 519.328 233.048 519.438C233.978 520.128 234.486 521.095 234.56 522.256C234.663 523.895 233.884 524.989 232.947 526.231C232.034 525.731 231.751 525.397 231.257 524.484C231.025 522.538 231.866 520.919 232.574 519.153Z"/>
	<path fill="#E63E5A" d="M226.421 538.181C228.294 536.269 230.911 536.082 233.537 536.043C235.115 536.02 236.319 536.303 237.646 537.179L238.023 537.907C237.141 539.797 235.3 539.937 234.171 541.389Q232.978 541.503 231.78 541.485C229.308 541.446 228.004 539.846 226.421 538.181Z"/>
	<path fill="#EEAC92" d="M226.421 538.181C228.004 539.846 229.308 541.446 231.78 541.485Q232.978 541.503 234.171 541.389L234.965 542.011L234.716 542.805C233.426 543.771 232.148 543.955 230.607 544.27L229.91 544.409C230.911 544.47 231.379 544.733 232.264 545.154C232.918 545.466 232.617 545.218 232.946 546.154C232.053 546.907 231.505 546.964 230.369 546.878C228.115 546.707 225.583 545.534 224.085 543.837C223.054 542.668 223.088 541.888 223.221 540.457C224.148 539.41 225.221 538.853 226.421 538.181Z"/>
	<path fill="#EEAC92" d="M211.363 542.646C211.54 542.741 211.721 542.831 211.896 542.931C214.631 544.502 217.004 546.702 219.735 548.287C222.967 550.162 228.589 551.247 232.296 551.837L232.7 552.34L234.02 554.502C232.514 560.757 229.672 565.816 226.824 571.532C220.935 568.077 214.746 561.11 211.389 555.191C211.787 552.061 211.532 548.63 211.599 545.457L211.363 542.646Z"/>
	<path fill="#ED595A" d="M211.363 542.646C211.54 542.741 211.721 542.831 211.896 542.931C214.631 544.502 217.004 546.702 219.735 548.287C222.967 550.162 228.589 551.247 232.296 551.837L232.7 552.34C231.425 554.229 228.269 555.925 226.09 556.453C220.81 557.732 216.281 555.176 211.934 552.581C211.899 550.193 211.775 547.837 211.599 545.457L211.363 542.646Z"/>
	<path fill="#ED595A" d="M205.192 337.368L217.205 337.43L217.227 338.063L217.273 339.014C217.321 340.145 217.246 341.391 217.811 342.415C219.022 344.612 222.621 345.337 224.834 346.093L230.306 342.741C232.78 345.11 234.913 347.871 237.104 350.501C235.786 352.269 234.289 353.925 232.862 355.607C234.116 358.705 235.191 361.72 236.039 364.954L242.029 365.412C241.981 369.338 241.405 373.235 240.608 377.071L234.508 376.722C232.822 380.158 230.985 383.341 228.872 386.532C230.18 388.035 231.257 389.688 232.375 391.333C228.667 393.574 224.969 395.687 221.085 397.61C220.322 396.391 219.561 394.968 218.634 393.871C217.649 392.708 217.098 392.654 215.625 392.571C212.57 392.627 209.483 392.446 206.428 392.352L202.734 398.553C198.723 396.064 194.446 394.228 190.138 392.331C191.219 390.276 192.167 388.124 193.173 386.028C190.58 383.64 188.479 379.32 185.642 377.667C184.134 376.789 182.219 377.481 180.612 377.824C179.973 374.372 178.043 369.871 179.881 366.622C181.175 365.401 182.815 365.516 184.495 365.379Q186.008 360.37 187.641 355.398L183.467 351.925C184.951 349.686 186.399 347.046 188.155 345.041C189.093 343.969 190.043 343.65 191.439 343.515C193.241 344.065 194.204 345.369 195.45 346.72C197.857 345.741 201.341 344.884 203.308 343.223C205.227 341.603 205.113 339.681 205.192 337.368Z"/>
	<path fill="#FEFEFE" d="M208.464 352.627C211.53 352.52 214.542 353 217.309 354.381Q218.03 354.743 218.71 355.178Q219.389 355.613 220.02 356.116Q220.651 356.619 221.226 357.185Q221.801 357.75 222.315 358.372Q222.829 358.995 223.275 359.667Q223.722 360.339 224.096 361.053Q224.47 361.768 224.769 362.518Q225.067 363.267 225.286 364.044Q225.483 364.743 225.608 365.458Q225.733 366.173 225.785 366.897Q225.837 367.621 225.816 368.346Q225.795 369.072 225.701 369.792Q225.606 370.512 225.44 371.218Q225.273 371.925 225.037 372.611Q224.8 373.297 224.495 373.956Q224.19 374.614 223.82 375.239C221.312 379.517 217.421 381.742 212.751 382.995C209.09 383.076 206.023 382.764 202.739 380.933Q202.047 380.547 201.398 380.09Q200.75 379.634 200.152 379.113Q199.555 378.591 199.015 378.011Q198.475 377.43 197.998 376.797Q197.521 376.163 197.112 375.484Q196.704 374.804 196.368 374.086Q196.033 373.367 195.774 372.618Q195.515 371.868 195.335 371.096C194.383 367.009 195.189 362.475 197.577 359.013C200.29 355.08 203.95 353.568 208.464 352.627Z"/>
	<path fill="#ED595A" d="M209.574 362.433C211.628 362.66 213.884 363.203 215.119 365.025C215.85 366.103 215.902 367.184 215.657 368.425C215.24 370.55 213.449 371.795 211.781 372.926C211.252 372.962 211.313 372.972 210.679 372.932C208.88 372.817 207.154 372.241 206.122 370.648C205.339 369.441 205.321 368.116 205.618 366.755C206.092 364.587 207.803 363.497 209.574 362.433Z"/>
	<path fill="#42BE83" d="M234.02 554.502C238.675 557.514 243.448 561.086 248.818 562.651C254.18 562.607 257.525 563.195 261.579 567.087C266.818 572.117 273.262 581.578 277.251 587.701C274.608 591.459 269.632 597.025 268.841 601.516C265.783 601.665 263.637 601.982 261.48 604.302C258.385 607.632 240.346 652.458 238.91 658.343Q237.398 662.447 235.802 666.52C233.992 666.922 232.565 668.115 231.078 669.165L229.185 668.92C228.664 669.663 228.47 670.046 228.188 670.873C224.631 672.524 210.332 671.836 204.847 672.946C193.107 674.614 180.374 675.189 168.549 674.207C158.526 672.639 152.079 670.595 143.929 664.312C142.35 662.415 140.902 660.561 139.898 658.285C134.667 646.416 142.5 632.822 146.78 621.753C151.227 623.345 155.629 624.963 160.227 626.076C165.199 626.936 170.269 627.63 175.191 628.727C178.761 624.846 180.054 618.584 182.515 613.946C185.779 601.002 187.393 593.211 184.692 579.967C182.508 576.752 180.441 573.863 177.173 571.626C174.999 570.482 172.711 569.815 170.379 569.078C179.217 565.376 188.986 564.184 198.044 561.052C202.552 559.203 207.006 557.326 211.389 555.191C214.746 561.11 220.935 568.077 226.824 571.532C229.672 565.816 232.514 560.757 234.02 554.502Z"/>
	<path fill="#1B9662" d="M234.02 554.502C238.675 557.514 243.448 561.086 248.818 562.651C247.241 568.46 244.29 574.121 241.249 579.29Q234.208 575.874 227.27 572.253L226.824 571.532C229.672 565.816 232.514 560.757 234.02 554.502Z"/>
	<path fill="#1B9662" d="M211.389 555.191C214.746 561.11 220.935 568.077 226.824 571.532L227.27 572.253Q225.777 575.276 224.219 578.266L221.496 572.264C217.048 575.026 212.641 577.902 207.952 580.242C204.431 573.947 200.945 567.664 198.044 561.052C202.552 559.203 207.006 557.326 211.389 555.191Z"/>
	<path fill="#39A189" d="M184.692 579.967C187.695 582.858 189.839 586.57 192.15 590.021C200.933 603.136 208.517 616.98 217.588 629.922Q224.78 640.038 232.384 649.847C234.495 652.591 237.197 655.361 238.91 658.343C220.631 659.229 202.049 658.517 184.593 652.716Q178.351 650.181 172.245 647.333C172.552 641.156 173.179 634.604 175.191 628.727C178.761 624.846 180.054 618.584 182.515 613.946C185.779 601.002 187.393 593.211 184.692 579.967Z"/>
	<path fill="#2D7A7D" d="M175.191 628.727C178.761 624.846 180.054 618.584 182.515 613.946C184.564 626.445 183.848 640.028 184.593 652.716Q178.351 650.181 172.245 647.333C172.552 641.156 173.179 634.604 175.191 628.727Z"/>
	<path fill="#EEAC92" d="M146.78 621.753C151.227 623.345 155.629 624.963 160.227 626.076C165.199 626.936 170.269 627.63 175.191 628.727C173.179 634.604 172.552 641.156 172.245 647.333Q178.351 650.181 184.593 652.716C202.049 658.517 220.631 659.229 238.91 658.343Q237.398 662.447 235.802 666.52C233.992 666.922 232.565 668.115 231.078 669.165L229.185 668.92C228.664 669.663 228.47 670.046 228.188 670.873C224.631 672.524 210.332 671.836 204.847 672.946C193.107 674.614 180.374 675.189 168.549 674.207C158.526 672.639 152.079 670.595 143.929 664.312C142.35 662.415 140.902 660.561 139.898 658.285C134.667 646.416 142.5 632.822 146.78 621.753Z"/>
	<path fill="#E63E5A" d="M822.804 671.773C829.196 662.419 837.814 652.265 849.541 650.079C857.063 648.676 863.773 650.159 870.045 654.484C875.059 657.941 879.093 662.636 880.168 668.791C882.494 682.118 870.964 692.619 872.519 704.745C874.084 716.955 887.388 723.34 886.972 737.535Q886.954 738.272 886.881 739.006Q886.807 739.74 886.68 740.466Q886.552 741.192 886.37 741.907Q886.188 742.621 885.954 743.32Q885.719 744.019 885.432 744.699Q885.146 745.378 884.81 746.035Q884.473 746.691 884.089 747.32Q883.704 747.949 883.274 748.548C871.838 764.785 851.301 761.138 847.624 784.945C854.71 785.08 867.908 782.926 873.001 788.35Q873.381 788.759 873.718 789.206Q874.054 789.652 874.342 790.131Q874.63 790.61 874.868 791.116Q875.105 791.622 875.289 792.149Q875.473 792.677 875.602 793.221Q875.73 793.765 875.802 794.319Q875.874 794.873 875.888 795.432Q875.902 795.991 875.859 796.548C875.667 799.128 874.514 801.59 872.508 803.253C868.644 806.457 862.711 805.87 857.988 805.887L857.559 805.845C850.375 804.784 836.979 805.784 829.016 805.765Q793.187 805.484 757.359 805.843C755.947 801.443 756.906 790.455 756.989 785.454L776.414 785.072C776.632 781.628 777.054 770.243 778.189 767.794C779.52 772.76 777.595 779.812 777.259 784.994L794.309 784.91C795.957 776.343 794.992 767.608 798.265 759.331C806.489 738.536 828.73 724.157 831.646 700.91C833.029 689.884 829.432 680.41 822.804 671.773Z"/>
	<path fill="#867CF7" d="M832.808 738.615C836.769 725.741 840.605 712.699 845.025 699.98L845.778 699.713L845.659 699.291L845.09 700.059L845.655 699.293C846.228 702.502 835.708 734.284 833.615 738.672C841.849 735.612 852.417 731.204 861.077 730.545L861.327 730.799C853.149 733.526 842.244 736.18 834.81 740.06C823.004 746.223 807.98 770.943 802.225 782.441L801.15 784.6C816.593 784.537 832.198 784.138 847.624 784.945C854.71 785.08 867.908 782.926 873.001 788.35Q873.381 788.759 873.718 789.206Q874.054 789.652 874.342 790.131Q874.63 790.61 874.868 791.116Q875.105 791.622 875.289 792.149Q875.473 792.677 875.602 793.221Q875.73 793.765 875.802 794.319Q875.874 794.873 875.888 795.432Q875.902 795.991 875.859 796.548C875.667 799.128 874.514 801.59 872.508 803.253C868.644 806.457 862.711 805.87 857.988 805.887L857.559 805.845C850.375 804.784 836.979 805.784 829.016 805.765Q793.187 805.484 757.359 805.843C755.947 801.443 756.906 790.455 756.989 785.454L776.414 785.072C776.632 781.628 777.054 770.243 778.189 767.794C779.52 772.76 777.595 779.812 777.259 784.994L794.309 784.91L799.796 784.613C807.399 767.498 819.089 751.421 832.808 738.615Z"/>
	<path fill="#F8BF5F" d="M752.421 647.41C752.505 647.175 752.596 646.943 752.673 646.706C755.127 639.161 750.649 630.132 747.06 623.717C741.682 614.104 737.577 607.358 740.711 595.864C743.083 587.167 748.398 578.999 756.377 574.524C765.406 569.458 777.084 569.376 786.842 572.203C795.95 574.843 804.601 581.081 809.237 589.466C814.355 598.724 812.472 609.039 809.521 618.619C806.273 629.161 799.928 642.375 805.64 652.995C809.614 660.384 817.512 665.324 822.804 671.773C829.432 680.41 833.029 689.884 831.646 700.91C828.73 724.157 806.489 738.536 798.265 759.331C794.992 767.608 795.957 776.343 794.309 784.91L777.259 784.994C777.595 779.812 779.52 772.76 778.189 767.794C777.054 770.243 776.632 781.628 776.414 785.072L756.989 785.454C755.491 785.521 754.066 785.684 752.617 785.21C753.894 777.191 755.829 772.881 755.019 764.324C755.449 762.264 754.922 759.784 754.57 757.703C751.771 741.172 735.618 730.818 732.94 714.373C731.265 704.088 732.501 680.932 737.161 671.566C740.558 664.741 752.25 655.431 752.433 648.084C752.439 647.86 752.425 647.635 752.421 647.41Z"/>
	<path fill="#ED595A" d="M794.054 126.167C801.125 126.156 808.202 126.209 815.269 125.938Q817.325 136.827 819.264 147.737C826.199 150.104 832.991 152.319 838.896 156.825Q846.608 151.348 854.123 145.602C859.079 151.193 864.36 156.46 869.616 161.765C866.61 166.67 863.381 171.401 860.127 176.143C863.892 181.85 866.608 187.811 868.805 194.292C869.041 194.988 868.911 194.713 869.362 195.323C875.823 195.732 882.675 196.13 889.009 197.486Q889.197 208.575 889.538 219.66C883.045 220.552 876.475 221.701 869.948 222.24C868.667 226.962 867.277 231.486 865.317 235.984C864.314 238.286 861.492 242.463 861.461 244.747C859.245 246.459 857.837 249.008 855.982 251.091Q851.474 256.12 846.138 260.262C843.627 262.223 836.799 265.081 835.607 267.7C830.466 270.92 824.244 273.079 818.407 274.659C808.532 276.05 799.287 275.78 789.546 273.644C781.307 271.413 774.479 267.663 767.173 263.372C762.219 266.831 757.812 271.052 753.229 274.981C747.971 269.996 742.716 265.026 737.664 259.831C741.801 254.412 746.221 248.998 749.85 243.23C745.945 237.323 744.062 230.814 742.57 223.95C740.751 214.228 740.887 205.87 742.691 196.142C743.988 189.332 747.524 182.691 750.466 176.452Q744.132 167.559 737.407 158.958L744.594 150.861C746.639 148.49 748.771 146.153 750.712 143.698C756.503 147.973 762.864 152.158 767.542 157.664L773.428 154.147C778.872 151.661 784.126 149.419 789.983 148.063Q792.629 137.229 794.054 126.167Z"/>
	<path fill="#F0A346" d="M794.054 126.167C801.125 126.156 808.202 126.209 815.269 125.938Q817.325 136.827 819.264 147.737C826.199 150.104 832.991 152.319 838.896 156.825Q846.608 151.348 854.123 145.602C859.079 151.193 864.36 156.46 869.616 161.765C866.61 166.67 863.381 171.401 860.127 176.143C863.892 181.85 866.608 187.811 868.805 194.292C869.041 194.988 868.911 194.713 869.362 195.323C868.453 199.85 870.458 208.109 870.436 213.324C869.713 212.723 869.762 209.1 869.671 208.058C869.042 200.786 868.091 194.304 865.574 187.424C864.8 185.308 863.805 182.51 861.659 181.502L860.499 182.621C856.643 181.197 852.034 182.17 848.143 180.689C841.998 178.349 836.771 173.417 830.851 170.575C827.286 168.864 823.156 168.584 819.512 167.064C808.84 162.611 798.701 155.831 789.351 149.076C781.445 151.412 774.451 154.841 767.25 158.79C764.108 155.196 755.605 146.634 750.943 146.139C748.453 145.875 747.416 149.728 745.598 151.051L744.594 150.861C746.639 148.49 748.771 146.153 750.712 143.698C756.503 147.973 762.864 152.158 767.542 157.664L773.428 154.147C778.872 151.661 784.126 149.419 789.983 148.063Q792.629 137.229 794.054 126.167Z"/>
	<path fill="#FEFEFE" d="M799.777 168.605C809.512 167.674 819.148 169.041 827.555 174.248Q828.443 174.802 829.302 175.399Q830.162 175.996 830.991 176.634Q831.821 177.272 832.618 177.95Q833.415 178.628 834.179 179.344Q834.942 180.06 835.669 180.812Q836.397 181.564 837.087 182.351Q837.777 183.138 838.428 183.957Q839.078 184.777 839.688 185.627Q840.298 186.477 840.866 187.356Q841.434 188.235 841.958 189.141Q842.483 190.046 842.962 190.977Q843.442 191.907 843.876 192.859Q844.309 193.812 844.696 194.784Q845.083 195.756 845.421 196.747Q845.76 197.737 846.05 198.742Q846.34 199.748 846.581 200.766Q846.826 201.88 847.014 203.004Q847.203 204.129 847.336 205.262Q847.469 206.394 847.545 207.532Q847.621 208.67 847.641 209.81Q847.661 210.95 847.623 212.09Q847.586 213.23 847.492 214.366Q847.399 215.503 847.248 216.633Q847.098 217.764 846.892 218.885Q846.686 220.007 846.424 221.117Q846.162 222.227 845.846 223.322Q845.529 224.418 845.159 225.496Q844.788 226.575 844.364 227.633Q843.94 228.692 843.464 229.728Q842.988 230.765 842.462 231.776Q841.935 232.787 841.358 233.771Q840.782 234.755 840.157 235.709C833.487 246.061 823.789 251.843 811.906 254.346C800.908 255.715 791.374 254.11 782.045 247.868C772.291 241.341 765.992 231.396 763.827 219.89Q763.626 218.807 763.478 217.715Q763.331 216.623 763.237 215.525Q763.143 214.427 763.103 213.325Q763.063 212.224 763.077 211.122Q763.092 210.02 763.16 208.921Q763.229 207.821 763.351 206.725Q763.473 205.63 763.649 204.542Q763.825 203.455 764.054 202.377Q764.283 201.299 764.565 200.234Q764.846 199.168 765.18 198.118Q765.514 197.068 765.899 196.035Q766.283 195.003 766.718 193.99Q767.154 192.978 767.638 191.988Q768.122 190.998 768.654 190.033Q769.187 189.068 769.766 188.131Q770.345 187.193 770.969 186.285C777.929 176.197 787.926 170.817 799.777 168.605Z"/>
	<path fill="#42BE83" d="M823.055 190.344C827.082 192.781 830.244 196.412 833.433 199.813C829.037 205.396 823.566 210.404 818.616 215.519C812.499 221.841 806.581 228.393 800.177 234.427Q793.732 228.277 787.449 221.962C784.036 218.448 780.589 214.97 777.427 211.224C779.997 207.547 782.892 204.589 786.327 201.722C791.312 205.373 795.693 210.406 800.418 214.472C803.231 210.704 806.816 207.466 810.048 204.056C814.385 199.48 818.567 194.776 823.055 190.344Z"/>
	<path fill="#6555F3" d="M755.019 764.324C755.829 772.881 753.894 777.191 752.617 785.21C754.066 785.684 755.491 785.521 756.989 785.454C756.906 790.455 755.947 801.443 757.359 805.843Q793.187 805.484 829.016 805.765C836.979 805.784 850.375 804.784 857.559 805.845L857.988 805.887L858.012 830.573Q858.153 862.27 857.928 893.966C857.206 897.37 856.191 900.344 854.488 903.405C850.954 908.354 846.782 911.637 842.001 915.32C833.781 916.894 824.181 915.992 815.771 916.006L767.597 916.073L738.894 916.113C733.917 916.123 728.241 916.677 723.378 915.783C716.322 912.754 713.128 908.465 709.369 902.068C711.563 899.37 714.272 896.505 715.91 893.446C722.6 880.95 720.422 857.925 720.411 843.508C719.821 837.279 720.153 830.701 720.125 824.437Q720.003 806.904 720.099 789.372L719.844 785.791C729.939 785.475 740.067 785.596 750.168 785.563C751.07 781.693 752.222 777.896 753.065 774C753.762 770.776 753.915 767.444 755.019 764.324Z"/>
	<path fill="#4C3ADF" d="M720.099 789.372C720.685 794.874 720.382 800.512 720.372 806.042L757.024 805.949L756.952 814.401C745.138 815.68 732.434 814.664 720.539 814.537C720.583 824.078 721.191 834.01 720.411 843.508C719.821 837.279 720.153 830.701 720.125 824.437Q720.003 806.904 720.099 789.372Z"/>
	<path fill="#3D68E7" d="M755.019 764.324C755.829 772.881 753.894 777.191 752.617 785.21C754.066 785.684 755.491 785.521 756.989 785.454C756.906 790.455 755.947 801.443 757.359 805.843L757.024 805.949L720.372 806.042C720.382 800.512 720.685 794.874 720.099 789.372L719.844 785.791C729.939 785.475 740.067 785.596 750.168 785.563C751.07 781.693 752.222 777.896 753.065 774C753.762 770.776 753.915 767.444 755.019 764.324Z"/>
	<path fill="#4C3ADF" d="M757.359 805.843Q793.187 805.484 829.016 805.765C836.979 805.784 850.375 804.784 857.559 805.845L857.604 814.078Q823.173 814.253 788.742 813.992C779.375 813.957 765.927 812.874 756.952 814.401L757.024 805.949L757.359 805.843Z"/>
	<path fill="#867CF7" d="M757.074 830.236C790.702 829.842 824.372 830.8 858.012 830.573Q858.153 862.27 857.928 893.966C857.206 897.37 856.191 900.344 854.488 903.405L852.266 903.427L817.611 903.431C807.164 903.417 794.923 904.442 784.792 901.759Q783.76 901.49 782.747 901.153Q781.734 900.817 780.746 900.414Q779.758 900.012 778.798 899.545Q777.839 899.079 776.912 898.551Q775.985 898.022 775.094 897.434Q774.204 896.846 773.354 896.2Q772.505 895.555 771.699 894.855Q770.894 894.155 770.136 893.404C755.132 878.372 757.093 849.929 757.074 830.236Z"/>
	<path fill="#867CF7" d="M718.639 310.605C719.975 314.685 719.04 365.795 719.037 374.291L839.85 374.52L875.458 374.526C882.019 374.532 889.099 374.054 895.6 374.958Q896.526 375.088 897.438 375.292Q898.351 375.495 899.244 375.771Q900.138 376.046 901.006 376.391Q901.875 376.737 902.714 377.15Q903.552 377.563 904.355 378.041Q905.159 378.52 905.921 379.061Q906.684 379.601 907.401 380.201Q908.119 380.8 908.786 381.455Q909.359 382.029 909.889 382.643Q910.419 383.257 910.904 383.907Q911.388 384.558 911.825 385.241Q912.261 385.925 912.648 386.638Q913.034 387.352 913.368 388.091Q913.702 388.83 913.982 389.591Q914.261 390.353 914.486 391.132Q914.71 391.911 914.878 392.705C916.59 400.639 915.426 410.645 915.445 418.826C915.481 433.798 915.821 448.825 915.576 463.792C915.478 469.768 914.221 475.2 909.801 479.473Q909.188 480.071 908.529 480.619Q907.87 481.166 907.169 481.66Q906.469 482.153 905.732 482.589Q904.994 483.025 904.224 483.4Q903.454 483.776 902.657 484.089Q901.859 484.403 901.04 484.651Q900.22 484.9 899.383 485.083Q898.546 485.266 897.697 485.381C892.027 486.208 885.778 485.758 880.043 485.734Q865.295 485.63 850.546 485.675L718.84 485.534C718.362 475.901 718.691 466.147 718.678 456.5L718.589 403.371L718.598 347.272C718.56 335.085 718.169 322.778 718.639 310.605Z"/>
	<path fill="#FEFEFE" d="M792.508 431.453L857.288 431.472C865.183 431.48 879.11 430.545 886.392 431.81C887.237 433.221 886.889 435.222 886.816 436.828C865.683 437.291 844.426 436.821 823.282 436.809C815.785 436.804 799.53 437.701 793.083 436.552C792.216 435.053 792.478 433.141 792.508 431.453Z"/>
	<path fill="#FEFEFE" d="M740.504 447.009L833.995 446.907L870.582 446.88C875.132 446.876 879.836 446.499 884.36 446.693C885.159 446.728 885.705 446.967 886.375 447.377C887.27 449.039 887.027 450.097 886.988 451.961C872.068 451.915 743.347 452.624 741.083 451.559C740.141 450.209 740.448 448.578 740.504 447.009Z"/>
	<path fill="#FEFEFE" d="M740.469 410.977C752.973 410.95 882.977 410.145 886.365 411.45C887.264 412.802 886.9 414.48 886.809 416.027L786.697 416.169L756.609 416.327C751.628 416.353 745.781 416.937 740.918 415.978C740.19 414.504 740.44 412.599 740.469 410.977Z"/>
	<path fill="#0E1B74" d="M305.481 601.722L305.856 396.674L305.685 337.772C305.659 326.623 304.778 314.689 306.515 303.668C307.936 294.652 312.686 285.975 319.041 279.482C327.951 270.377 340.468 265.634 353.095 265.478C378.128 265.167 403.208 265.534 428.245 265.54L578.627 265.515L646.781 265.485C658.186 265.465 671.875 264.383 682.957 266.023Q684.646 266.283 686.309 266.674Q687.972 267.065 689.599 267.586Q691.227 268.106 692.808 268.753Q694.39 269.399 695.916 270.168Q697.442 270.936 698.903 271.822Q700.364 272.708 701.751 273.706Q703.138 274.704 704.443 275.807Q705.747 276.911 706.961 278.113C716.268 287.334 718.569 297.962 718.639 310.605C718.169 322.778 718.56 335.085 718.598 347.272L718.589 403.371L718.678 456.5C718.691 466.147 718.362 475.901 718.84 485.534Q718.968 514.693 718.722 543.852L718.916 620.992C732.34 627.69 743.164 635.461 752.421 647.41C752.425 647.635 752.439 647.86 752.433 648.084C752.25 655.431 740.558 664.741 737.161 671.566C732.501 680.932 731.265 704.088 732.94 714.373C735.618 730.818 751.771 741.172 754.57 757.703C754.922 759.784 755.449 762.264 755.019 764.324C753.915 767.444 753.762 770.776 753.065 774C752.222 777.896 751.07 781.693 750.168 785.563C740.067 785.596 729.939 785.475 719.844 785.791L720.099 789.372Q720.003 806.905 720.125 824.437C720.153 830.701 719.821 837.279 720.411 843.508C720.422 857.925 722.6 880.95 715.91 893.446C714.272 896.505 711.563 899.37 709.369 902.068C703 908.597 697.516 912.553 688.996 915.826C685.249 916.914 681.859 917.265 677.963 917.342C652.119 917.854 626.168 917.157 600.31 917.144L433.918 917.001L374.073 916.997C363.419 917.045 348.228 918.397 338.115 916.249C332.16 917.071 325.471 916.455 319.454 916.401C305.807 916.279 292.111 915.947 278.468 916.321C277.014 912.919 275.215 910.025 272.48 907.486C267.211 902.596 259.191 900.278 252.067 900.549C251.415 896.671 251.734 892.626 251.854 888.708C253.963 888.713 256.082 888.571 258.19 888.482C258.776 883.091 258.53 877.393 258.69 871.954L259.645 835.399C260.74 794.896 261.555 754.316 263.387 713.843Q237.68 713.405 211.97 713.54L190.824 713.508L168.887 713.514L168.549 674.207C180.374 675.189 193.107 674.614 204.847 672.946C210.332 671.836 224.631 672.524 228.188 670.873C228.47 670.046 228.664 669.663 229.185 668.92L231.078 669.165C232.565 668.115 233.992 666.922 235.802 666.52Q237.398 662.447 238.91 658.343C240.346 652.458 258.385 607.632 261.48 604.302C263.637 601.982 265.783 601.665 268.841 601.516L269.563 601.693C280.97 604.802 294.173 598.492 305.481 601.722Z"/>
	<path fill="#146663" d="M204.847 672.946C210.332 671.836 224.631 672.524 228.188 670.873C228.47 670.046 228.664 669.663 229.185 668.92L231.078 669.165C230.14 669.742 229.631 670.018 229.183 671.047C229.868 672.308 231.497 672.846 232.732 673.474C231.256 678.13 229.795 683.232 227.789 687.676C233.593 687.586 239.538 687.26 245.33 687.555C235.734 690.453 224.578 688.773 215.874 684.074C213.732 682.917 211.057 681.475 209.312 679.768C207.823 678.311 206.299 675.743 204.576 674.687C203.71 674.156 202.249 674.195 201.285 674.236C195.762 674.471 190.261 675.349 184.739 675.662C179.854 675.938 174.808 675.63 169.923 675.408C168.937 678.523 169.554 682.874 169.478 686.196L170.214 686.257C172.753 686.449 185.214 686.512 186.735 685.405C186.482 684.242 185.969 683.171 186.462 682.066C187.158 682.998 187.234 684.98 188.262 685.135C195.797 686.271 203.669 685.113 211.289 686.01C217.742 686.77 223.238 689.45 229.397 691.032C233.04 691.968 237.364 691.952 241.139 692.176C243.545 692.318 249.243 691.664 250.768 692.987C241.549 694.483 231.534 692.534 222.708 689.871C219.382 688.868 215.834 687.498 212.411 686.958C204.549 685.719 195.538 686.552 187.538 686.617C188.471 695.587 189.31 704.615 190.824 713.508L168.887 713.514L168.549 674.207C180.374 675.189 193.107 674.614 204.847 672.946Z"/>
	<path fill="#ADA8ED" d="M204.847 672.946C210.332 671.836 224.631 672.524 228.188 670.873C228.47 670.046 228.664 669.663 229.185 668.92L231.078 669.165C230.14 669.742 229.631 670.018 229.183 671.047C229.868 672.308 231.497 672.846 232.732 673.474C231.256 678.13 229.795 683.232 227.789 687.676C227.525 687.626 227.26 687.58 226.998 687.524C218.772 685.795 209.414 680.066 204.847 672.946Z"/>
	<path fill="#2D7A7D" d="M187.538 686.617C195.538 686.552 204.549 685.719 212.411 686.958C215.834 687.498 219.382 688.868 222.708 689.871C231.534 692.534 241.549 694.483 250.768 692.987C254.649 692.962 259.882 692.357 263.591 693.391L263.387 713.843Q237.68 713.405 211.97 713.54L190.824 713.508C189.31 704.615 188.471 695.587 187.538 686.617Z"/>
	<path fill="#F0A346" d="M718.916 620.992C732.34 627.69 743.164 635.461 752.421 647.41C752.425 647.635 752.439 647.86 752.433 648.084C752.25 655.431 740.558 664.741 737.161 671.566C732.501 680.932 731.265 704.088 732.94 714.373C735.618 730.818 751.771 741.172 754.57 757.703C754.922 759.784 755.449 762.264 755.019 764.324C753.915 767.444 753.762 770.776 753.065 774C752.222 777.896 751.07 781.693 750.168 785.563C740.067 785.596 729.939 785.475 719.844 785.791C718.909 781.671 719.477 775.99 719.467 771.724L719.446 742.626C724.655 738.007 729.834 732.543 732.812 726.191C727.931 730.588 723.579 735.867 719.245 740.802Q718.909 711.906 718.901 683.009C718.773 662.335 718.431 641.664 718.916 620.992Z"/>
	<path fill="#FEFEFE" d="M269.563 601.693C280.97 604.802 294.173 598.492 305.481 601.722C307.955 602.053 310.333 602.064 312.818 602.03L326.855 601.964C330.542 601.594 334.295 601.644 338.001 601.58L343.614 601.517C345.861 601.412 348.238 601.046 350.36 601.903C351.26 602.725 351.753 603.448 352.34 604.513C352.497 611.116 344.509 626.688 342.168 633.882L332.511 659.32C330.836 663.607 328.5 668.127 327.297 672.513C325.272 677.304 323.03 684.723 317.747 686.727C316.283 687.282 314.649 687.388 313.104 687.534C306.07 687.483 299.048 688.452 292.04 688.977C285.706 689.45 279.32 689.455 272.971 689.429C263.739 689.391 254.46 687.135 245.33 687.555C239.538 687.26 233.593 687.586 227.789 687.676C229.795 683.232 231.256 678.13 232.732 673.474C231.497 672.846 229.868 672.308 229.183 671.047C229.631 670.018 230.14 669.742 231.078 669.165C232.565 668.115 233.992 666.922 235.802 666.52Q237.398 662.447 238.91 658.343C240.346 652.458 258.385 607.632 261.48 604.302C263.637 601.982 265.783 601.665 268.841 601.516L269.563 601.693Z"/>
	<path fill="#4386F2" d="M231.078 669.165C232.565 668.115 233.992 666.922 235.802 666.52C234.884 668.922 233.936 671.197 232.732 673.474C231.497 672.846 229.868 672.308 229.183 671.047C229.631 670.018 230.14 669.742 231.078 669.165Z"/>
	<path fill="#EB78D5" d="M295.144 630.186C296.801 630.349 298.475 630.53 300.002 631.237C302.76 632.513 304.841 634.634 305.75 637.554C306.895 641.232 306.14 645.441 304.33 648.776C301.58 653.842 297.344 656.193 292.02 657.742C289.212 657.658 286.807 657.381 284.4 655.81C282.05 654.277 280.553 651.962 280.043 649.211C279.266 645.011 280.745 640.565 283.224 637.184C286.291 633.001 290.079 630.889 295.144 630.186Z"/>
	<defs>
		<linearGradient id="gradient_3" gradientUnits="userSpaceOnUse" x1="220.49004" y1="738.57294" x2="364.53821" y2="882.41522">
			<stop offset="0" stop-color="#CCCAF7"/>
			<stop offset="1" stop-color="#FBFAFB"/>
		</linearGradient>
	</defs>
	<path fill="url(#gradient_3)" d="M263.591 693.391Q284.49 693.577 305.39 693.481L305.506 824.691L305.469 860.8C305.453 868.992 304.841 877.514 306.343 885.593C307.691 892.848 311.734 899.422 316.963 904.555C322.958 910.438 330.112 913.926 338.115 916.249C332.16 917.071 325.471 916.455 319.454 916.401C305.807 916.279 292.111 915.947 278.468 916.321C277.014 912.919 275.215 910.025 272.48 907.486C267.211 902.596 259.191 900.278 252.067 900.549C251.415 896.671 251.734 892.626 251.854 888.708C253.963 888.713 256.082 888.571 258.19 888.482C258.776 883.091 258.53 877.393 258.69 871.954L259.645 835.399C260.74 794.896 261.555 754.316 263.387 713.843L263.591 693.391Z"/>
	<defs>
		<linearGradient id="gradient_4" gradientUnits="userSpaceOnUse" x1="297.93863" y1="440.28207" x2="699.78442" y2="401.37372">
			<stop offset="0" stop-color="#212A80"/>
			<stop offset="1" stop-color="#3C469C"/>
		</linearGradient>
	</defs>
	<path fill="url(#gradient_4)" d="M312.818 602.03Q313.537 498.663 312.56 395.299L312.374 338.099C312.347 327.68 311.585 316.72 312.824 306.391Q312.931 305.43 313.086 304.475Q313.241 303.521 313.445 302.575Q313.649 301.63 313.9 300.696Q314.151 299.762 314.45 298.843Q314.748 297.923 315.093 297.019Q315.438 296.116 315.828 295.231Q316.219 294.346 316.653 293.482Q317.088 292.619 317.566 291.778Q318.044 290.937 318.564 290.122Q319.085 289.307 319.645 288.519Q320.206 287.731 320.807 286.973Q321.407 286.215 322.045 285.488Q322.683 284.761 323.357 284.068Q324.031 283.374 324.739 282.716Q325.448 282.058 326.189 281.436Q326.929 280.815 327.701 280.232Q328.831 279.355 330.019 278.559Q331.207 277.764 332.448 277.053Q333.689 276.342 334.977 275.72Q336.264 275.097 337.592 274.566Q338.92 274.035 340.282 273.599Q341.643 273.162 343.032 272.821Q344.421 272.481 345.831 272.238Q347.24 271.996 348.663 271.852C357.545 271.029 366.623 271.425 375.533 271.545Q394.106 271.84 412.681 271.891L533.14 271.649L634.077 271.615L663.632 271.561C669.487 271.552 675.722 271.148 681.526 271.951C670.153 272.663 658.661 271.582 647.311 272.412Q659.054 272.532 670.798 272.48C674.526 272.466 679.068 271.909 682.696 272.583C683.939 272.814 685.323 273.396 686.198 274.341C687.527 275.776 687.892 277.585 687.711 279.486C687.593 280.721 687.231 282.302 686.229 283.12C686.028 283.284 685.796 283.407 685.587 283.561C684.122 284.644 682.151 286.832 680.57 287.475C679.315 287.986 627.778 288.241 622.74 288.248C617.219 288.256 610.304 287.48 604.976 288.599C604.983 296.17 606.647 306.074 601.162 312.146C597.947 315.706 593.708 315.669 589.169 315.879C578.475 316.373 567.589 315.965 556.879 315.955L496.245 315.887L457.438 315.873C450.113 315.896 442.441 316.388 435.154 315.691C431.186 315.311 428.22 314.903 425.238 311.972C419.329 306.165 420.745 296.236 420.921 288.7L350.55 288.631C347.571 289.34 345.679 291.238 344.044 293.782C342.482 296.211 342.284 298.884 342.117 301.688C341.59 310.518 341.989 319.573 342.001 328.424L342.035 377.795L342.048 415.188C342.078 421.48 341.616 428.35 342.513 434.552L342.463 434.848L342.561 546.233C342.579 555.318 341.459 580.702 343.164 588.416C341.605 588.244 340.24 588.288 338.682 588.445C338.069 588.81 337.296 589.421 336.621 589.608C338.692 591.842 337.978 598.469 338.001 601.58C334.295 601.644 330.542 601.594 326.855 601.964L312.818 602.03Z"/>
	<path fill="#4855A8" d="M336.621 589.608C338.692 591.842 337.978 598.469 338.001 601.58C334.295 601.644 330.542 601.594 326.855 601.964C328.605 600.151 328.454 597.029 329.535 594.69C330.906 591.724 333.751 590.699 336.621 589.608Z"/>
	<path fill="#3D68E7" d="M481.935 287.562C483.376 287.503 485.006 287.329 486.415 287.657C488.279 288.091 490.169 289.602 491.178 291.2C492.142 292.727 492.403 294.458 491.996 296.212C491.355 298.971 489.438 300.334 487.111 301.674C486.169 301.812 485.193 301.971 484.239 301.967C482.392 301.961 480.47 300.977 479.269 299.6C477.929 298.062 477.468 296.022 477.69 294.022C478.032 290.94 479.607 289.407 481.935 287.562Z"/>
	<path fill="#FEFEFE" d="M533.098 287.032C534.461 287.022 535.913 286.997 537.222 287.432C539.133 288.066 540.823 289.438 541.717 291.255C542.573 292.994 542.607 294.999 541.91 296.797C540.878 299.457 539.081 300.569 536.603 301.754C535.046 301.845 533.497 301.864 531.989 301.395C530.245 300.851 528.705 299.425 527.877 297.816C526.99 296.093 526.919 294.108 527.553 292.29C528.539 289.463 530.501 288.239 533.098 287.032Z"/>
	<path fill="#FEFEFE" d="M510.028 287.025C511.296 286.957 512.678 286.896 513.917 287.249C516.082 287.867 517.928 289.612 518.852 291.637Q519.003 291.969 519.121 292.315Q519.238 292.661 519.32 293.017Q519.402 293.373 519.448 293.736Q519.493 294.098 519.503 294.463Q519.512 294.828 519.485 295.193Q519.457 295.557 519.393 295.917Q519.329 296.276 519.23 296.628Q519.13 296.979 518.996 297.319C518.033 299.811 516.314 300.854 513.999 301.964C512.717 302.024 511.293 302.034 510.038 301.716C508.094 301.222 506.399 299.854 505.393 298.14C504.357 296.375 504.128 294.377 504.732 292.417C505.609 289.571 507.479 288.291 510.028 287.025Z"/>
	<path fill="#55A7FA" d="M327.915 434.531L327.915 408.463L328.048 338.503C328.078 328.035 327.007 313.56 328.919 303.697C329.608 300.141 332.244 296.362 334.826 293.892C339.475 289.444 344.401 288.533 350.55 288.631C347.571 289.34 345.679 291.238 344.044 293.782C342.482 296.211 342.284 298.884 342.117 301.688C341.59 310.518 341.989 319.573 342.001 328.424L342.035 377.795L342.048 415.188C342.078 421.48 341.616 428.35 342.513 434.552L342.463 434.848C338.164 433.902 332.386 434.569 327.915 434.531Z"/>
	<path fill="#4386F2" d="M327.915 434.531C332.386 434.569 338.164 433.902 342.463 434.848L342.561 546.233C342.579 555.318 341.459 580.702 343.164 588.416C341.605 588.244 340.24 588.288 338.682 588.445C334.968 588.447 331.496 589.334 328.001 590.5L327.915 434.531Z"/>
	<defs>
		<linearGradient id="gradient_5" gradientUnits="userSpaceOnUse" x1="544.01758" y1="917.75543" x2="484.76944" y2="325.58435">
			<stop offset="0" stop-color="#232F7F"/>
			<stop offset="1" stop-color="#4548A0"/>
		</linearGradient>
	</defs>
	<path fill="url(#gradient_5)" d="M681.526 271.951C689.991 272.406 698.513 277.195 704.091 283.45C707.733 287.534 710.994 293.139 712.063 298.53C714.306 309.834 713.101 331.335 713.226 343.93Q713.624 372.529 713.545 401.131C713.545 410.13 713.906 419.31 713.457 428.292C714.17 452.34 713.495 476.556 713.517 500.63L713.74 680.304Q714.457 746.334 714.056 812.366L714.008 851.022C713.996 858.045 714.509 865.522 713.577 872.468C712.543 880.167 708.255 887.481 703.009 893.067C694.249 902.397 686.326 905.143 673.761 905.434C649.944 905.986 626.004 905.416 602.175 905.391L461.357 905.322L384.359 905.212C374.176 905.17 357.795 906.004 348.221 904.704C340.051 903.596 331.506 899.312 325.606 893.572C315.762 883.997 313.034 873.632 312.962 860.262L313.104 687.534C314.649 687.388 316.283 687.282 317.747 686.727C323.03 684.723 325.272 677.304 327.297 672.513C328.5 668.127 330.836 663.607 332.511 659.32L342.168 633.882C343.285 634.775 343.751 634.939 343.966 636.43C344.634 641.071 343.992 646.763 343.974 651.502L343.852 686.85L343.87 805.591C343.888 817.326 342.767 838.992 344.751 849.74Q344.958 850.89 345.255 852.02Q345.553 853.15 345.939 854.253Q346.325 855.356 346.798 856.425Q347.27 857.494 347.826 858.521Q348.382 859.549 349.018 860.53Q349.654 861.51 350.365 862.437Q351.077 863.364 351.86 864.232Q352.643 865.099 353.492 865.902C357.1 869.338 362.433 872.596 367.396 873.318C378.747 874.972 395.29 873.947 407.189 873.948L484.778 873.936L613.284 873.882L653.736 873.963C660.727 873.981 667.822 874.263 674.799 873.958C681.77 873.655 687.749 871.15 692.415 865.877C695.633 862.24 696.986 858.655 699.043 854.368C699.288 843.144 698.997 831.848 698.98 820.617L698.968 754.399L698.854 536.33L698.851 463.68C698.865 451.48 698.497 439.169 698.979 426.984L698.566 426.888C699.038 420.47 698.594 413.695 698.575 407.245L698.508 367.358L698.554 327.192C698.559 320.682 699.294 313.087 698.091 306.69C697.413 303.084 694.97 299.355 692.588 296.633C689.845 293.496 686.255 290.672 682.217 289.497C675.283 287.479 666.03 288.548 658.783 288.615L625.84 288.867C619.126 288.908 612.263 289.188 605.573 288.651L604.976 288.599C610.304 287.48 617.219 288.256 622.74 288.248C627.778 288.241 679.315 287.986 680.57 287.475C682.151 286.832 684.122 284.644 685.587 283.561C685.796 283.407 686.028 283.284 686.229 283.12C687.231 282.302 687.593 280.721 687.711 279.486C687.892 277.585 687.527 275.776 686.198 274.341C685.323 273.396 683.939 272.814 682.696 272.583C679.068 271.909 674.526 272.466 670.798 272.48Q659.054 272.532 647.311 272.412C658.661 271.582 670.153 272.663 681.526 271.951Z"/>
	<path fill="#4855A8" d="M681.526 271.951C689.991 272.406 698.513 277.195 704.091 283.45C707.733 287.534 710.994 293.139 712.063 298.53C714.306 309.834 713.101 331.335 713.226 343.93Q713.624 372.529 713.545 401.131C713.545 410.13 713.906 419.31 713.457 428.292C711.954 436.69 712.938 447.548 712.922 456.197L712.685 516.408C711.661 511.387 712.497 503.359 712.502 497.981L712.527 451.754C712.486 446.782 711.797 441.933 711.374 436.992C710.248 423.82 708.2 408.2 707.978 395.218C707.828 386.451 709.742 377.395 709.984 368.559C710.211 360.228 708.181 351.637 708.151 343.194C708.125 335.804 710.068 328.415 709.847 321.151C709.755 318.117 709.111 315.59 707.933 312.807C706.839 310.223 704.267 304.71 701.481 303.856C700.794 303.645 700.566 304.019 700.015 304.365C699.581 305.102 699.219 305.706 699.191 306.584C699.101 309.44 699.608 312.352 699.563 315.233Q698.812 345.618 698.931 376.011C699.027 392.925 699.777 410.093 698.979 426.984L698.566 426.888C699.038 420.47 698.594 413.695 698.575 407.245L698.508 367.358L698.554 327.192C698.559 320.682 699.294 313.087 698.091 306.69C697.413 303.084 694.97 299.355 692.588 296.633C689.845 293.496 686.255 290.672 682.217 289.497C675.283 287.479 666.03 288.548 658.783 288.615L625.84 288.867C619.126 288.908 612.263 289.188 605.573 288.651L604.976 288.599C610.304 287.48 617.219 288.256 622.74 288.248C627.778 288.241 679.315 287.986 680.57 287.475C682.151 286.832 684.122 284.644 685.587 283.561C685.796 283.407 686.028 283.284 686.229 283.12C687.231 282.302 687.593 280.721 687.711 279.486C687.892 277.585 687.527 275.776 686.198 274.341C685.323 273.396 683.939 272.814 682.696 272.583C679.068 271.909 674.526 272.466 670.798 272.48Q659.054 272.532 647.311 272.412C658.661 271.582 670.153 272.663 681.526 271.951Z"/>
	<path fill="#4386F2" d="M342.168 633.882C343.285 634.775 343.751 634.939 343.966 636.43C344.634 641.071 343.992 646.763 343.974 651.502L343.852 686.85L343.87 805.591C343.888 817.326 342.767 838.992 344.751 849.74Q344.958 850.89 345.255 852.02Q345.553 853.15 345.939 854.253Q346.325 855.356 346.798 856.425Q347.27 857.494 347.826 858.521Q348.382 859.549 349.018 860.53Q349.654 861.51 350.365 862.437Q351.077 863.364 351.86 864.232Q352.643 865.099 353.492 865.902C357.1 869.338 362.433 872.596 367.396 873.318C378.747 874.972 395.29 873.947 407.189 873.948L484.778 873.936L613.284 873.882L653.736 873.963C660.727 873.981 667.822 874.263 674.799 873.958C681.77 873.655 687.749 871.15 692.415 865.877C695.633 862.24 696.986 858.655 699.043 854.368C699.956 859.658 699.115 865.517 697.04 870.452C694.187 877.235 688.937 883.032 681.959 885.711C673.55 888.939 607.266 887.503 593.608 887.494L489.747 887.433L398.758 887.319C382.664 887.282 366.319 887.77 350.255 886.984C347.268 886.838 344.396 886.325 341.675 885.029C335.378 882.031 330.521 875.565 328.793 868.913C326.52 860.165 327.737 828.567 327.713 817.552C327.631 779.967 327.29 742.344 327.713 704.763C327.773 699.42 329.108 676.973 327.574 673.148C327.488 672.933 327.389 672.724 327.297 672.513C328.5 668.127 330.836 663.607 332.511 659.32L342.168 633.882Z"/>
	<defs>
		<linearGradient id="gradient_6" gradientUnits="userSpaceOnUse" x1="389.67361" y1="484.44965" x2="647.19348" y2="248.54266">
			<stop offset="0" stop-color="#77C0F9"/>
			<stop offset="1" stop-color="#8FDBFA"/>
		</linearGradient>
	</defs>
	<path fill="url(#gradient_6)" d="M604.976 288.599L605.573 288.651C612.263 289.188 619.126 288.908 625.84 288.867L658.783 288.615C666.03 288.548 675.283 287.479 682.217 289.497C686.255 290.672 689.845 293.496 692.588 296.633C694.97 299.355 697.413 303.084 698.091 306.69C699.294 313.087 698.559 320.682 698.554 327.192L698.508 367.358L698.575 407.245C698.594 413.695 699.038 420.47 698.566 426.888C698.38 429.989 698.357 433.051 698.393 436.156C663.757 436.333 628.9 436.594 594.278 435.665Q593.883 434.066 593.47 432.471C590.533 421.15 583.738 403.916 573.084 397.635L572.418 397.1C568.603 393.99 565.543 390.145 561.588 387.065C545.39 374.451 524.581 367.678 504.035 369.525C483.481 371.373 465.239 380.925 452.143 396.852C442.833 408.174 437.387 420.433 435.152 434.884C404.276 435.26 373.382 434.115 342.513 434.552C341.616 428.35 342.078 421.48 342.048 415.188L342.035 377.795L342.001 328.424C341.989 319.573 341.59 310.518 342.117 301.688C342.284 298.884 342.482 296.211 344.044 293.782C345.679 291.238 347.571 289.34 350.55 288.631L420.921 288.7C420.745 296.236 419.329 306.165 425.238 311.972C428.22 314.903 431.186 315.311 435.154 315.691C442.441 316.388 450.113 315.896 457.438 315.873L496.245 315.887L556.879 315.955C567.589 315.965 578.475 316.373 589.169 315.879C593.708 315.669 597.947 315.706 601.162 312.146C606.647 306.074 604.983 296.17 604.976 288.599Z"/>
	<defs>
		<linearGradient id="gradient_7" gradientUnits="userSpaceOnUse" x1="341.73666" y1="854.74847" x2="699.50946" y2="438.22604">
			<stop offset="0" stop-color="#5792F5"/>
			<stop offset="1" stop-color="#70B9F7"/>
		</linearGradient>
	</defs>
	<path fill="url(#gradient_7)" d="M435.152 434.884C437.387 420.433 442.833 408.174 452.143 396.852C465.239 380.925 483.481 371.373 504.035 369.525C524.581 367.678 545.39 374.451 561.588 387.065C565.543 390.145 568.603 393.99 572.418 397.1L573.084 397.635C583.738 403.916 590.533 421.15 593.47 432.471Q593.883 434.066 594.278 435.665C628.9 436.594 663.757 436.333 698.393 436.156C698.357 433.051 698.38 429.989 698.566 426.888L698.979 426.984C698.497 439.169 698.865 451.48 698.851 463.68L698.854 536.33L698.968 754.399L698.98 820.617C698.997 831.848 699.288 843.144 699.043 854.368C696.986 858.655 695.633 862.24 692.415 865.877C687.749 871.15 681.77 873.655 674.799 873.958C667.822 874.263 660.727 873.981 653.736 873.963L613.284 873.882L484.778 873.936L407.189 873.948C395.29 873.947 378.747 874.972 367.396 873.318C362.433 872.596 357.1 869.338 353.492 865.902Q352.643 865.099 351.86 864.232Q351.077 863.364 350.365 862.437Q349.654 861.51 349.018 860.53Q348.382 859.549 347.826 858.521Q347.27 857.494 346.798 856.425Q346.325 855.356 345.939 854.253Q345.553 853.15 345.255 852.02Q344.958 850.89 344.751 849.74C342.767 838.992 343.888 817.326 343.87 805.591L343.852 686.85L343.974 651.502C343.992 646.763 344.634 641.071 343.966 636.43C343.751 634.939 343.285 634.775 342.168 633.882C344.509 626.688 352.497 611.116 352.34 604.513C351.753 603.448 351.26 602.725 350.36 601.903C348.238 601.046 345.861 601.412 343.614 601.517L338.001 601.58C337.978 598.469 338.692 591.842 336.621 589.608C337.296 589.421 338.069 588.81 338.682 588.445C340.24 588.288 341.605 588.244 343.164 588.416C341.459 580.702 342.579 555.318 342.561 546.233L342.463 434.848L342.513 434.552C373.382 434.115 404.276 435.26 435.152 434.884Z"/>
	<path fill="#163480" d="M338.682 588.445C340.24 588.288 341.605 588.244 343.164 588.416L345.299 589.45L352.891 591.371C353.183 595.402 354.007 600.689 352.34 604.513C351.753 603.448 351.26 602.725 350.36 601.903C348.238 601.046 345.861 601.412 343.614 601.517L338.001 601.58C337.978 598.469 338.692 591.842 336.621 589.608C337.296 589.421 338.069 588.81 338.682 588.445Z"/>
	<path fill="#4855A8" d="M345.299 589.45L352.891 591.371C353.183 595.402 354.007 600.689 352.34 604.513C351.753 603.448 351.26 602.725 350.36 601.903C348.238 601.046 345.861 601.412 343.614 601.517C344.579 598.771 346.088 596.216 347.445 593.645L352.453 598.914C351.158 596.105 349.826 594.025 347.483 591.984C346.549 591.17 345.971 590.489 345.299 589.45Z"/>
	<path fill="#3D68E7" d="M441.266 790.517C443.713 791.616 445.44 795.089 446.412 797.476C449.49 805.029 448.008 814.514 444.73 821.728C440.897 830.161 434.069 837.033 425.303 840.228Q424.587 840.492 423.858 840.72Q423.129 840.948 422.39 841.14Q421.651 841.331 420.903 841.485Q420.155 841.639 419.4 841.756Q418.646 841.873 417.886 841.952Q417.127 842.031 416.364 842.072Q415.602 842.113 414.838 842.116Q414.075 842.119 413.312 842.084Q412.549 842.049 411.789 841.976Q411.029 841.903 410.274 841.792Q409.518 841.682 408.769 841.533Q408.02 841.385 407.279 841.199Q406.539 841.014 405.808 840.791Q405.078 840.569 404.359 840.311Q403.641 840.052 402.936 839.759Q402.231 839.465 401.542 839.136C397.883 837.403 394.42 835.49 391.84 832.294L391.615 831.267C392.319 831.642 393.011 832.03 393.709 832.415C401.564 836.746 410.796 837.425 419.347 834.855C427.953 832.27 435.257 826.641 439.491 818.662C444.32 809.56 444.303 800.148 441.266 790.517Z"/>
	<path fill="#3D68E7" d="M460.557 504.34L463.064 506.335C480.551 519.673 500.466 525.254 522.345 522.345C532.993 520.93 542.529 517.112 551.816 511.791C554.752 510.109 557.668 507.916 560.684 506.474C560.342 508.947 559.938 511.427 559.705 513.912C551.451 519.015 542.96 523.078 533.51 525.44C513.305 530.49 492.035 527.745 474.194 516.84C470.507 514.587 461.602 508.739 460.557 504.34Z"/>
	<path fill="#3D68E7" d="M440.171 683.421L441.227 682.71C443.321 683.752 445.038 689.048 445.8 691.303C448.935 700.591 448.686 708.913 444.222 717.699C440.011 725.986 432.409 732.784 423.514 735.616C414.985 738.333 406.686 736.876 398.898 732.795C396.378 731.474 393.998 729.922 392.151 727.73L391.876 726.651L392.153 726.24Q393.368 726.858 394.602 727.437C403.062 731.475 413.03 732.293 421.915 729.075C430.073 726.121 436.673 719.689 440.257 711.832C444.633 702.239 443.743 693.06 440.171 683.421Z"/>
	<path fill="#3D68E7" d="M440.266 581.483C441.02 581.383 441.191 581.156 441.819 581.721C445.766 585.272 447.681 595.482 447.61 600.638Q447.599 601.477 447.546 602.313Q447.493 603.151 447.399 603.984Q447.304 604.817 447.169 605.645Q447.033 606.472 446.856 607.292Q446.679 608.112 446.461 608.922Q446.243 609.732 445.986 610.53Q445.728 611.328 445.431 612.112Q445.133 612.896 444.797 613.665Q444.462 614.433 444.088 615.184Q443.714 615.934 443.303 616.666Q442.892 617.397 442.445 618.106Q441.999 618.816 441.517 619.503Q441.036 620.189 440.52 620.851Q440.005 621.513 439.458 622.148Q438.91 622.783 438.332 623.39Q437.753 623.997 437.145 624.575C431.007 630.421 422.367 634.369 413.79 634.032C407.474 633.785 396.855 630.722 392.714 625.782C392.051 624.991 391.711 624.557 391.852 623.508C391.866 623.403 391.924 623.31 391.96 623.211L393.935 624.263Q394.668 624.646 395.42 624.993Q396.171 625.339 396.939 625.648Q397.707 625.957 398.489 626.227Q399.271 626.498 400.066 626.729Q400.86 626.961 401.665 627.153Q402.47 627.344 403.284 627.496Q404.097 627.648 404.917 627.759Q405.737 627.87 406.562 627.941Q407.386 628.011 408.213 628.041Q409.041 628.07 409.868 628.059Q410.695 628.048 411.521 627.995Q412.347 627.943 413.17 627.85Q413.992 627.757 414.808 627.623Q415.625 627.489 416.434 627.315Q417.243 627.141 418.043 626.927Q418.842 626.713 419.63 626.46Q420.404 626.221 421.164 625.944Q421.925 625.667 422.671 625.353Q423.418 625.038 424.147 624.687Q424.877 624.336 425.588 623.949Q426.299 623.562 426.99 623.14Q427.682 622.719 428.351 622.263Q429.02 621.807 429.666 621.319Q430.312 620.831 430.933 620.311Q431.554 619.792 432.149 619.242Q432.743 618.692 433.309 618.113Q433.876 617.535 434.413 616.929Q434.949 616.323 435.456 615.69Q435.962 615.058 436.436 614.402Q436.91 613.746 437.351 613.067Q437.792 612.388 438.199 611.688Q438.605 610.987 438.977 610.268C443.739 600.966 443.358 591.209 440.266 581.483Z"/>
	<defs>
		<linearGradient id="gradient_8" gradientUnits="userSpaceOnUse" x1="559.28491" y1="642.02606" x2="565.80939" y2="560.72223">
			<stop offset="0" stop-color="#4172E4"/>
			<stop offset="1" stop-color="#569DFF"/>
		</linearGradient>
	</defs>
	<path fill="url(#gradient_8)" d="M655.509 565.338C657.003 566.595 657.932 567.884 659.003 569.509C658.894 581.921 658.57 594.342 658.557 606.752C658.551 613.352 659.234 620.256 658.579 626.816C658.314 629.468 657.77 631.901 656.324 634.158C654.002 635.648 651.453 635.854 648.75 635.955C635.968 636.431 622.973 635.943 610.162 635.973L524.601 635.991L485.692 635.918C479.174 635.903 471.531 636.61 465.15 635.367C463.085 634.001 462.541 632.257 461.944 629.938C476.163 629.621 490.462 629.908 504.691 629.889L594.141 629.911L629.459 629.986C636.015 629.998 642.869 630.387 649.391 629.749C651.175 629.574 652.807 628.989 654.085 627.69C654.667 627.099 655.071 626.444 655.227 625.616C656.365 619.565 655.613 612.283 655.604 606.114L655.509 565.338Z"/>
	<path fill="#FEFEFE" d="M391.615 831.267C387.785 828.18 383.758 824.73 381.159 820.498C376.721 813.269 375.493 803.701 377.56 795.531C379.804 786.664 385.504 779.438 393.399 774.881C401.092 770.441 410.047 768.941 418.671 771.311C429.402 774.259 435.892 781.126 441.266 790.517C444.303 800.148 444.32 809.56 439.491 818.662C435.257 826.641 427.953 832.27 419.347 834.855C410.796 837.425 401.564 836.746 393.709 832.415C393.011 832.03 392.319 831.642 391.615 831.267Z"/>
	<path fill="#F0A346" d="M409.012 784.613Q410.46 784.578 411.899 784.74Q413.338 784.902 414.741 785.257Q416.145 785.613 417.488 786.155Q418.83 786.698 420.087 787.417C424.393 789.914 427.39 793.969 428.671 798.764C429.928 803.466 429.413 808.342 426.853 812.52C423.604 817.823 418.911 820.074 413.125 821.559C408.129 821.673 403.928 821.455 399.617 818.543Q398.866 818.025 398.168 817.437Q397.47 816.849 396.832 816.195Q396.195 815.542 395.624 814.831Q395.053 814.119 394.553 813.355Q394.054 812.591 393.631 811.782Q393.208 810.973 392.865 810.127Q392.522 809.282 392.263 808.406Q392.004 807.531 391.831 806.635Q391.746 806.188 391.683 805.736Q391.62 805.285 391.58 804.831Q391.54 804.377 391.523 803.922Q391.506 803.467 391.512 803.011Q391.518 802.556 391.546 802.101Q391.575 801.646 391.627 801.193Q391.678 800.741 391.753 800.291Q391.827 799.842 391.924 799.396Q392.02 798.951 392.14 798.511Q392.259 798.072 392.4 797.638Q392.541 797.205 392.703 796.78Q392.866 796.354 393.05 795.937Q393.234 795.52 393.438 795.113Q393.643 794.706 393.868 794.31Q394.093 793.914 394.337 793.529Q394.582 793.145 394.845 792.773C398.346 787.765 403.18 785.59 409.012 784.613Z"/>
	<path fill="#FEFEFE" d="M392.153 726.24C388.384 723.56 384.322 720.441 381.881 716.467C377.169 708.797 375.467 699.875 377.596 691.082Q377.789 690.261 378.022 689.451Q378.256 688.641 378.529 687.843Q378.802 687.046 379.115 686.263Q379.427 685.479 379.778 684.713Q380.129 683.946 380.517 683.198Q380.906 682.45 381.331 681.721Q381.756 680.993 382.216 680.287Q382.677 679.581 383.172 678.898Q383.667 678.216 384.196 677.559Q384.724 676.902 385.284 676.272Q385.845 675.642 386.435 675.04Q387.026 674.439 387.646 673.867Q388.266 673.296 388.914 672.756Q389.561 672.216 390.235 671.709Q390.908 671.201 391.606 670.728Q392.304 670.255 393.024 669.817Q393.764 669.384 394.525 668.986Q395.285 668.589 396.064 668.229Q396.842 667.87 397.638 667.548Q398.433 667.226 399.243 666.943Q400.052 666.661 400.875 666.417Q401.698 666.174 402.531 665.971Q403.365 665.768 404.207 665.605Q405.049 665.443 405.898 665.321Q406.747 665.2 407.602 665.119Q408.456 665.039 409.312 665Q410.169 664.961 411.027 664.964Q411.885 664.966 412.742 665.011Q413.598 665.055 414.452 665.141Q415.306 665.226 416.154 665.353Q417.002 665.48 417.844 665.648Q418.685 665.816 419.517 666.024C429.614 668.621 435.01 674.732 440.171 683.421C443.743 693.06 444.633 702.239 440.257 711.832C436.673 719.689 430.073 726.121 421.915 729.075C413.03 732.293 403.062 731.475 394.602 727.437Q393.368 726.858 392.153 726.24Z"/>
	<path fill="#42BE83" d="M408.891 679.618C412.219 679.452 415.623 680.258 418.574 681.782Q419.006 682.006 419.426 682.253Q419.846 682.499 420.252 682.766Q420.659 683.033 421.052 683.32Q421.445 683.608 421.822 683.915Q422.2 684.222 422.561 684.548Q422.923 684.874 423.267 685.217Q423.612 685.561 423.938 685.922Q424.265 686.283 424.573 686.66Q424.88 687.037 425.169 687.429Q425.457 687.822 425.725 688.228Q425.993 688.634 426.24 689.054Q426.486 689.473 426.712 689.904Q426.937 690.336 427.14 690.778Q427.343 691.221 427.523 691.673Q427.703 692.125 427.861 692.585Q428.018 693.046 428.151 693.514Q428.275 693.937 428.377 694.366Q428.478 694.795 428.557 695.229Q428.636 695.663 428.692 696.1Q428.747 696.538 428.78 696.977Q428.813 697.417 428.822 697.858Q428.832 698.299 428.818 698.739Q428.805 699.18 428.768 699.62Q428.731 700.059 428.671 700.496Q428.611 700.933 428.528 701.366Q428.445 701.799 428.34 702.227Q428.234 702.655 428.106 703.077Q427.978 703.499 427.828 703.913Q427.678 704.328 427.506 704.734Q427.335 705.14 427.142 705.537Q426.949 705.933 426.736 706.319Q426.522 706.705 426.289 707.079C423.033 712.408 418.134 714.911 412.268 716.296C408.065 716.552 403.682 715.466 400.206 713.055C396.131 710.229 393.387 705.68 392.534 700.817C391.708 696.105 392.703 691.319 395.468 687.398C398.788 682.69 403.385 680.552 408.891 679.618Z"/>
	<path fill="#FEFEFE" d="M391.96 623.211C387.818 618.72 384.211 617.634 380.458 611.412Q380.054 610.736 379.683 610.042Q379.313 609.347 378.977 608.636Q378.64 607.924 378.339 607.197Q378.038 606.47 377.772 605.729Q377.507 604.987 377.278 604.234Q377.048 603.481 376.856 602.718Q376.664 601.955 376.509 601.183Q376.355 600.411 376.238 599.633Q376.121 598.854 376.042 598.071Q375.963 597.288 375.922 596.502Q375.881 595.716 375.879 594.928Q375.876 594.141 375.912 593.355Q375.948 592.569 376.023 591.785Q376.097 591.001 376.209 590.222Q376.321 589.443 376.471 588.67Q376.621 587.898 376.809 587.133Q377.01 586.312 377.251 585.502Q377.493 584.692 377.775 583.895Q378.057 583.098 378.378 582.316Q378.7 581.534 379.06 580.769Q379.42 580.004 379.818 579.258Q380.216 578.512 380.651 577.787Q381.086 577.062 381.556 576.36Q382.027 575.658 382.532 574.98Q383.037 574.302 383.576 573.65Q384.114 572.998 384.684 572.374Q385.255 571.75 385.856 571.156Q386.456 570.561 387.086 569.997Q387.716 569.433 388.374 568.902Q389.031 568.37 389.714 567.872Q390.397 567.374 391.104 566.911Q391.812 566.447 392.541 566.02Q393.259 565.597 393.997 565.21Q394.735 564.823 395.491 564.473Q396.247 564.123 397.019 563.811Q397.792 563.499 398.579 563.225Q399.366 562.951 400.166 562.717Q400.965 562.483 401.775 562.288Q402.585 562.093 403.404 561.939Q404.223 561.785 405.049 561.671Q405.874 561.557 406.704 561.485Q407.534 561.412 408.367 561.381Q409.199 561.349 410.033 561.359Q410.866 561.368 411.697 561.419Q412.529 561.47 413.357 561.562Q414.185 561.654 415.008 561.787Q415.831 561.919 416.646 562.092Q417.461 562.266 418.266 562.479C428.763 565.367 435.013 572.335 440.266 581.483C443.358 591.209 443.739 600.966 438.977 610.268Q438.605 610.987 438.199 611.688Q437.792 612.388 437.351 613.067Q436.91 613.746 436.436 614.402Q435.962 615.058 435.456 615.69Q434.949 616.323 434.413 616.929Q433.876 617.535 433.309 618.113Q432.743 618.692 432.149 619.242Q431.554 619.792 430.933 620.311Q430.312 620.831 429.666 621.319Q429.021 621.807 428.351 622.263Q427.682 622.719 426.99 623.14Q426.299 623.562 425.588 623.949Q424.877 624.336 424.147 624.687Q423.418 625.038 422.671 625.353Q421.925 625.667 421.164 625.944Q420.404 626.221 419.63 626.46Q418.842 626.713 418.043 626.927Q417.243 627.141 416.434 627.315Q415.625 627.489 414.809 627.623Q413.992 627.757 413.17 627.85Q412.347 627.943 411.521 627.995Q410.695 628.048 409.868 628.059Q409.041 628.07 408.213 628.041Q407.386 628.011 406.562 627.941Q405.737 627.87 404.917 627.759Q404.097 627.648 403.284 627.496Q402.47 627.344 401.665 627.153Q400.86 626.961 400.066 626.729Q399.271 626.498 398.489 626.227Q397.707 625.957 396.939 625.648Q396.171 625.339 395.42 624.993Q394.668 624.646 393.935 624.263L391.96 623.211Z"/>
	<path fill="#E63E5A" d="M408.093 576.161C411.736 575.912 415.585 576.793 418.804 578.499Q419.597 578.915 420.344 579.408Q421.091 579.901 421.786 580.466Q422.48 581.031 423.114 581.663Q423.748 582.295 424.316 582.987Q424.884 583.679 425.38 584.425Q425.876 585.17 426.294 585.962Q426.713 586.753 427.051 587.582Q427.388 588.411 427.641 589.27Q427.903 590.135 428.078 591.021Q428.254 591.908 428.34 592.807Q428.426 593.707 428.423 594.61Q428.42 595.514 428.326 596.413Q428.233 597.311 428.052 598.196Q427.87 599.082 427.601 599.944Q427.332 600.807 426.979 601.639Q426.626 602.47 426.192 603.263C423.111 608.878 418.323 611.475 412.386 613.102C407.502 613.165 403.332 612.604 399.244 609.703Q398.484 609.162 397.781 608.55Q397.077 607.937 396.437 607.259Q395.796 606.58 395.225 605.843Q394.654 605.105 394.158 604.315Q393.662 603.525 393.245 602.691Q392.828 601.856 392.495 600.985Q392.162 600.114 391.915 599.214Q391.669 598.314 391.511 597.395Q391.36 596.497 391.298 595.588Q391.236 594.679 391.265 593.768Q391.294 592.857 391.412 591.954Q391.531 591.051 391.739 590.163Q391.946 589.276 392.241 588.414Q392.535 587.552 392.914 586.723Q393.292 585.894 393.751 585.107Q394.21 584.32 394.744 583.582C398.073 579.052 402.71 577.035 408.093 576.161Z"/>
	<path fill="#FEFEFE" d="M462.247 769.589C476.768 769.01 491.498 769.488 506.039 769.475L592.841 769.478L630.858 769.402C636.98 769.388 644.093 768.681 650.084 769.752C652.506 770.185 653.689 772.263 654.942 774.136C655.449 783.608 655.055 793.338 655.088 802.833C655.117 811.12 655.667 819.743 654.911 827.983C654.636 830.978 653.309 832.131 651.143 833.964C645.409 835.473 637.16 834.474 631.189 834.463L596.945 834.445L502.776 834.412C490.698 834.387 478.524 834.821 466.464 834.527C464.259 834.473 462.033 834.364 460.065 833.287C459.212 831.34 459.082 829.132 458.959 827.027C458.311 815.918 458.833 804.45 458.815 793.303C458.805 787.032 457.913 779.325 459.033 773.226C459.388 771.29 460.717 770.553 462.247 769.589Z"/>
	<path fill="#C2CAF7" d="M485.068 790.218C494.932 789.728 505.019 790.181 514.902 790.209C522.388 790.231 530.566 789.602 537.965 790.641C538.595 791.074 539.027 791.178 539.284 791.946C539.823 793.555 539.004 795.043 538.333 796.472L505.293 796.443C499.378 796.431 493.119 796.815 487.247 796.197C485.472 796.01 484.833 796.058 483.754 794.663C483.588 793.588 483.393 792.726 483.612 791.644C483.791 790.757 484.355 790.682 485.068 790.218Z"/>
	<path fill="#C2CAF7" d="M483.68 804.54C490.744 804.416 536.939 803.674 539.419 805.409C539.605 807.25 539.352 808.673 538.95 810.471C532.99 811.09 486.049 811.255 483.865 809.83C483.137 808.115 483.5 806.34 483.68 804.54Z"/>
	<path fill="#FEFEFE" d="M462.183 665.63C475.182 665.201 488.301 665.588 501.315 665.597L574.008 665.545L622.595 665.485C631.146 665.477 640.008 664.948 648.512 665.712C650.536 665.894 652.456 665.834 653.771 667.588C654.839 669.012 655.237 671.281 655.418 673.007C656.139 679.879 655.38 687.28 655.416 694.215C655.468 703.884 656.636 717.185 655.258 726.456C654.863 729.115 653.944 730.255 651.806 731.773C645.235 733.526 608.187 732.466 597.916 732.467L505.711 732.153C492.234 732.05 478.552 732.558 465.101 731.874C463.658 731.8 461.018 731.972 460.183 730.637C459.326 729.268 459.188 726.994 459.108 725.432C458.764 718.762 458.496 671.58 459.51 668.007C459.93 666.527 460.938 666.322 462.183 665.63Z"/>
	<path fill="#C2CAF7" d="M485.733 687.082C491.847 686.881 533.512 686.216 536.771 687.093C538.066 687.441 538.301 687.998 539.019 689.029C539.13 690.668 538.744 691.502 538.034 692.912C531.122 693.54 490.606 693.993 485.549 692.726L484.893 691.527C484.877 689.833 485.163 688.672 485.733 687.082Z"/>
	<path fill="#C2CAF7" d="M485.246 701.049C493.019 700.727 533.453 699.997 538.454 701.493C539.294 701.745 539.246 702.217 539.587 702.954C539.549 704.664 539.225 705.821 538.597 707.405C529.148 708.031 519.316 707.536 509.835 707.547C502.648 707.555 494.801 708.189 487.672 707.489C486.227 707.347 485.938 707.086 484.995 705.995C484.561 704.232 484.908 702.808 485.246 701.049Z"/>
	<path fill="#FEFEFE" d="M461.944 629.938C461.09 629.713 460.308 629.394 459.488 629.071C458.617 628.028 458.526 627.161 458.446 625.855C457.729 614.053 458.518 601.797 458.549 589.932C458.568 582.512 457.756 574.524 458.565 567.192C458.765 565.371 459.052 563.964 460.299 562.566C462.718 561.836 465.158 561.642 467.672 561.563C481.117 561.142 494.698 561.525 508.156 561.522L586.39 561.531C595.564 561.544 646.808 560.371 652.275 562.276C653.999 562.876 654.69 563.773 655.509 565.338L655.604 606.114C655.613 612.283 656.365 619.565 655.227 625.616C655.071 626.444 654.667 627.099 654.085 627.69C652.807 628.989 651.175 629.574 649.391 629.749C642.869 630.387 636.015 629.998 629.459 629.986L594.141 629.911L504.691 629.889C490.462 629.908 476.163 629.621 461.944 629.938Z"/>
	<path fill="#C2CAF7" d="M485.131 580.052C492.922 579.988 533.213 579.162 537.83 580.561C538.757 580.842 538.671 581.17 539.105 581.981C539.057 583.663 538.752 584.657 538.026 586.169C530.747 586.557 523.291 586.242 515.987 586.239C507.031 586.235 497.999 586.486 489.054 586.192C487.324 586.135 486.144 586.299 484.928 585.013C484.439 583.233 484.786 581.837 485.131 580.052Z"/>
	<path fill="#C2CAF7" d="M485.528 593.684C491.798 593.425 535.74 592.854 538.072 594.341C538.655 594.713 538.878 595.619 539.002 596.245C539.268 597.587 538.451 599.056 537.823 600.161C530.042 600.769 491.921 601.328 485.933 599.986C484.993 599.122 484.641 598.843 484.453 597.495C484.26 596.12 484.699 594.752 485.528 593.684Z"/>
	<path fill="#FEFEFE" d="M435.152 434.884C437.387 420.433 442.833 408.174 452.143 396.852C465.239 380.925 483.481 371.373 504.035 369.525C524.581 367.678 545.39 374.451 561.588 387.065C565.543 390.145 568.603 393.99 572.418 397.1L573.084 397.635C583.738 403.916 590.533 421.15 593.47 432.471Q593.883 434.066 594.278 435.665C596.579 457.907 593.729 479.378 579.128 497.182C573.957 503.487 566.924 510.061 559.705 513.912C559.938 511.427 560.342 508.947 560.684 506.474C557.668 507.916 554.752 510.109 551.816 511.791C542.529 517.112 532.993 520.93 522.345 522.345C500.466 525.254 480.551 519.673 463.064 506.335L460.557 504.34C457.117 500.098 452.815 496.61 449.471 492.25C436.737 475.645 432.381 455.437 435.152 434.884Z"/>
	<path fill="#4386F2" d="M573.084 397.635C583.738 403.916 590.533 421.15 593.47 432.471Q593.883 434.066 594.278 435.665C596.579 457.907 593.729 479.378 579.128 497.182C573.957 503.487 566.924 510.061 559.705 513.912C559.938 511.427 560.342 508.947 560.684 506.474C561.155 506.056 561.629 505.381 562.037 504.893C563.084 504.674 564.003 503.765 564.846 503.106C579.054 492.005 588.531 473.526 590.588 455.755C593.114 433.931 586.565 414.668 573.084 397.635Z"/>
	<path fill="#4C3ADF" d="M508.539 393.166C511.373 392.827 514.47 392.888 517.285 393.374Q517.972 393.495 518.652 393.649Q519.332 393.803 520.004 393.991Q520.676 394.178 521.338 394.398Q522 394.618 522.65 394.87Q523.3 395.123 523.938 395.406Q524.575 395.69 525.197 396.005Q525.82 396.32 526.426 396.665Q527.032 397.01 527.621 397.384Q528.209 397.758 528.779 398.161Q529.349 398.563 529.898 398.993Q530.447 399.423 530.974 399.88Q531.502 400.336 532.006 400.818Q532.51 401.3 532.991 401.806Q533.471 402.311 533.926 402.84Q534.38 403.369 534.809 403.92Q535.237 404.47 535.638 405.041C540.458 411.937 541.271 419.913 539.809 427.97L547.996 428.113C547.378 431.065 546.551 434.265 545.035 436.887C542.302 441.609 537.923 442.874 533.015 444.259C528.446 449.594 523.798 452.557 517.034 454.393C514.187 454.641 511.177 454.829 508.328 454.579C500.094 453.857 494.887 449.63 489.815 443.549L489.082 443.342C487.09 442.793 485.134 442.334 483.424 441.111C479.04 437.975 478.238 433.115 477.464 428.15L484.585 427.98C484.272 418.989 484.516 411.132 490.203 403.588C494.813 397.472 501.067 394.227 508.539 393.166Z"/>
	<path fill="#6555F3" d="M463.064 506.335C462.856 502.781 462.617 499.171 462.805 495.612C463.244 487.305 466.361 479.605 472.741 474.034Q474.041 472.891 475.469 471.915Q476.898 470.938 478.435 470.142Q479.971 469.345 481.593 468.741Q483.214 468.137 484.897 467.733C491.923 466.076 526.756 466.388 535.155 467.098C543.005 467.762 550.477 470.9 555.518 477.165C561.867 485.056 563.066 495.151 562.037 504.893C561.629 505.381 561.155 506.056 560.684 506.474C557.668 507.916 554.752 510.109 551.816 511.791C542.529 517.112 532.993 520.93 522.345 522.345C500.466 525.254 480.551 519.673 463.064 506.335Z"/>
</svg>
