<svg version="1.1" id="Layer_1" xmlns="http://www.w3.org/2000/svg" xmlns:xlink="http://www.w3.org/1999/xlink" x="0px" y="0px"
	 width="100%" viewBox="0 0 192 192" enable-background="new 0 0 192 192" xml:space="preserve">
<path fill="#7C2EBF" opacity="1.000000" stroke="none" 
	d="
M134.000000,193.000000 
	C89.362099,193.000000 45.224205,193.000000 1.043153,193.000000 
	C1.043153,129.070480 1.043153,65.140923 1.043153,1.105683 
	C64.887703,1.105683 128.775635,1.105683 192.831787,1.105683 
	C192.831787,64.999634 192.831787,128.999786 192.831787,193.000000 
	C173.474533,193.000000 153.987274,193.000000 134.000000,193.000000 
M102.578293,172.534210 
	C102.578293,175.642273 102.578293,178.750336 102.578293,181.905594 
	C103.876633,182.125961 104.508530,182.326370 105.140633,182.327072 
	C128.626724,182.352982 152.112885,182.391861 175.598862,182.341187 
	C179.792084,182.332138 180.579636,180.693405 178.553986,176.472275 
	C169.415802,157.429764 160.248856,138.401031 151.066086,119.379967 
	C134.367081,84.789856 117.672386,50.197559 100.866089,15.659606 
	C100.096237,14.077506 98.415924,12.364379 96.845207,11.972417 
	C95.974640,11.755175 94.026749,13.941185 93.293655,15.408321 
	C89.506294,22.987883 86.002434,30.708338 82.312874,38.337662 
	C60.151497,84.163246 37.971741,129.979935 15.782047,175.791809 
	C13.134279,181.258270 13.812149,182.366837 20.108019,182.370605 
	C42.095169,182.383774 64.082336,182.381271 86.069481,182.362869 
	C87.679909,182.361526 89.290192,182.185654 91.243469,182.070740 
	C91.243469,176.246536 91.761269,170.734009 91.122864,165.358795 
	C90.150101,157.168411 83.091179,151.202606 74.789993,151.631760 
	C68.965988,151.932846 63.203510,153.423935 56.576500,154.522339 
	C69.990700,126.708344 83.251175,99.213074 96.982841,70.740814 
	C110.773430,99.307571 124.023689,126.755058 137.800995,155.294327 
	C133.376312,154.150024 130.139847,153.255219 126.875252,152.478622 
	C111.441177,148.807144 102.581055,155.777710 102.578293,172.534210 
M112.570900,143.763779 
	C115.543999,143.165863 118.517105,142.567947 121.967201,141.874084 
	C113.799942,125.016487 105.950775,108.815422 98.101601,92.614349 
	C97.802155,92.727402 97.502701,92.840446 97.203255,92.953499 
	C97.203255,113.391830 97.203255,133.830154 97.203255,153.218903 
	C101.947830,150.199112 106.866905,147.068268 112.570900,143.763779 
z"/>
<path fill="#FDFDFE" opacity="1.000000" stroke="none" 
	d="
M102.578217,172.047501 
	C102.581055,155.777710 111.441177,148.807144 126.875252,152.478622 
	C130.139847,153.255219 133.376312,154.150024 137.800995,155.294327 
	C124.023689,126.755058 110.773430,99.307571 96.982841,70.740814 
	C83.251175,99.213074 69.990700,126.708344 56.576500,154.522339 
	C63.203510,153.423935 68.965988,151.932846 74.789993,151.631760 
	C83.091179,151.202606 90.150101,157.168411 91.122864,165.358795 
	C91.761269,170.734009 91.243469,176.246536 91.243469,182.070740 
	C89.290192,182.185654 87.679909,182.361526 86.069481,182.362869 
	C64.082336,182.381271 42.095169,182.383774 20.108019,182.370605 
	C13.812149,182.366837 13.134279,181.258270 15.782047,175.791809 
	C37.971741,129.979935 60.151497,84.163246 82.312874,38.337662 
	C86.002434,30.708338 89.506294,22.987883 93.293655,15.408321 
	C94.026749,13.941185 95.974640,11.755175 96.845207,11.972417 
	C98.415924,12.364379 100.096237,14.077506 100.866089,15.659606 
	C117.672386,50.197559 134.367081,84.789856 151.066086,119.379967 
	C160.248856,138.401031 169.415802,157.429764 178.553986,176.472275 
	C180.579636,180.693405 179.792084,182.332138 175.598862,182.341187 
	C152.112885,182.391861 128.626724,182.352982 105.140633,182.327072 
	C104.508530,182.326370 103.876633,182.125961 102.578293,181.905594 
	C102.578293,178.750336 102.578293,175.642273 102.578217,172.047501 
z"/>
<path fill="#FCFAFD" opacity="1.000000" stroke="none" 
	d="
M112.178436,143.850601 
	C106.866905,147.068268 101.947830,150.199112 97.203255,153.218903 
	C97.203255,133.830154 97.203255,113.391830 97.203255,92.953499 
	C97.502701,92.840446 97.802155,92.727402 98.101601,92.614349 
	C105.950775,108.815422 113.799942,125.016487 121.967201,141.874084 
	C118.517105,142.567947 115.543999,143.165863 112.178436,143.850601 
z"/>
</svg>